<svg width="500" height="500" viewBox="0 0 500 500" fill="none" xmlns="http://www.w3.org/2000/svg">
<rect width="500" height="500" rx="250" fill="currentColor"/>
<path d="M305.351 171H267.63V185.211C267.63 263.721 323.452 329.192 397.571 344.102C390.615 354.987 382.489 365.051 373.368 374.117C329.97 361.193 292.839 333.723 267.63 297.36V424.122C261.832 424.702 255.951 425 250 425C244.138 425 238.344 424.711 232.63 424.148V297.36C207.383 333.779 170.176 361.278 126.692 374.177C117.56 365.108 109.423 355.04 102.458 344.148C176.692 329.329 232.63 263.803 232.63 185.211C232.63 185.198 232.63 185.186 232.63 185.173V171H194.5L249.926 75L305.351 171Z" fill="white"/>
</svg>
