<svg width="500" height="500" viewBox="0 0 500 500" fill="none" xmlns="http://www.w3.org/2000/svg">
<rect width="500" height="500" rx="250" fill="currentColor"/>
<path d="M305.351 171H267.578V295.929C288.622 265.576 317.975 241.421 352.344 226.748L340 192.834L449.167 212.083L377.913 297L364.335 259.695C307.35 284.818 267.578 341.819 267.578 408.077V424.127C261.797 424.704 255.933 425 250 425C244.12 425 238.308 424.709 232.578 424.143V408.078C232.578 341.976 192.994 285.088 136.223 259.874L122.711 297L51.457 212.083L160.624 192.834L148.217 226.922C182.411 241.612 211.616 265.696 232.578 295.93V171H194.5L249.926 75L305.351 171Z" fill="white"/>
</svg>
