<svg width="500" height="500" viewBox="0 0 500 500" fill="none" xmlns="http://www.w3.org/2000/svg">
<rect width="500" height="500" rx="250" fill="currentColor"/>
<path d="M397 328.945V338.106C397 352.767 385.09 365.605 369.501 365.605H131.166C115.577 365.605 103.667 352.767 103.667 338.106V328.945H397ZM323.662 136.449V145.61H351.161C376.822 145.61 396.982 165.788 396.999 191.431V237.27C396.999 262.947 376.82 283.107 351.16 283.107L319.983 283.125C312.662 299.625 296.162 310.624 277.823 310.624H186.165C160.487 310.624 140.326 290.446 140.326 264.786V136.449H323.662ZM323.662 182.288V246.447H351.161C356.661 246.447 360.321 242.786 360.321 237.286V191.448C360.321 185.949 356.661 182.288 351.161 182.288H323.662Z" fill="white"/>
</svg>
