<svg width="500" height="500" viewBox="0 0 500 500" fill="none" xmlns="http://www.w3.org/2000/svg">
<rect width="500" height="500" rx="250" fill="currentColor"/>
<path d="M416.687 128.648C408.291 122.756 399.168 118.869 389.549 116.325C370.311 111.234 349.087 111.452 327.87 111.688C306.653 111.922 285.435 112.157 266.191 107.05C256.965 104.608 248.118 100.811 240.215 95.4565C233.896 91.1645 228.136 85.789 223.154 79.7725L224.975 74.852C227.851 67.083 223.885 58.4535 216.116 55.5775C208.347 52.7 199.717 56.668 196.841 64.437L81.153 376.936C78.277 384.705 82.2435 393.335 90.0125 396.211C91.73 396.846 93.488 397.148 95.218 397.148C101.314 397.148 107.046 393.403 109.287 387.351L109.695 386.249L109.962 386.347L161.431 247.271C202.742 297.425 273.096 269.173 327.628 283.63C337.247 286.175 346.376 290.078 354.766 295.953C363.162 301.845 370.808 309.732 377.472 320.279C384.348 301.679 391.23 283.095 398.112 264.51C404.988 245.91 411.87 227.327 418.752 208.742C425.628 190.142 432.51 171.558 439.392 152.973C432.722 142.41 425.076 134.523 416.687 128.648ZM262.778 116.289C257.048 131.793 251.296 147.286 245.566 162.791C229.521 158.53 214.912 150.472 202.754 135.74C208.469 120.295 214.179 104.833 219.911 89.3805C232.055 104.123 246.75 112.04 262.778 116.289ZM391.088 254.904C378.927 240.158 364.304 232.105 348.285 227.855C355.159 209.262 362.038 190.686 368.917 172.108C349.674 167.001 328.45 167.219 307.238 167.471C300.362 186.071 293.48 204.655 286.598 223.24C307.807 223.005 329.017 222.77 348.256 227.871C342.527 243.371 336.777 258.861 331.049 274.361C311.806 269.253 290.61 269.443 269.392 269.678C275.113 254.194 280.849 238.702 286.586 223.212C265.369 223.446 244.151 223.681 224.907 218.574C219.186 234.059 213.461 249.527 207.718 265.001C191.689 260.752 177.011 252.829 164.851 238.093C170.592 222.563 176.339 207.049 182.081 191.52C194.242 206.255 208.878 214.325 224.906 218.574L224.907 218.574C231.788 199.994 238.669 181.413 245.577 162.803C264.811 167.89 286.03 167.672 307.243 167.436C312.963 151.952 318.7 136.461 324.436 120.97C345.636 120.741 366.849 120.545 386.093 125.652C380.35 141.127 374.63 156.611 368.904 172.079C384.938 176.345 399.569 184.398 411.729 199.134C404.853 217.734 397.971 236.318 391.089 254.902L391.088 254.904Z" fill="white"/>
</svg>
