<svg width="500" height="500" viewBox="0 0 500 500" fill="none" xmlns="http://www.w3.org/2000/svg">
<path d="M210.093 0C223.03 0.000132361 233.545 10.4951 233.545 23.4521C233.545 36.4092 223.03 46.9042 210.093 46.9043H115.679C77.7059 46.9443 46.9444 77.705 46.9053 115.678V384.32C46.9453 422.293 77.7059 453.055 115.679 453.094H384.321C422.294 453.054 453.056 422.293 453.095 384.32V289.927C453.095 276.97 463.59 266.475 476.547 266.475C489.504 266.475 500 276.971 500 289.928V384.321C499.961 414.985 487.766 444.399 466.073 466.072C444.4 487.765 414.985 499.961 384.321 500H115.679C85.0145 499.961 55.6003 487.765 33.9268 466.072C12.234 444.399 0.0390867 414.985 0 384.321V115.679C0.0390244 85.0145 12.2337 55.6003 33.9268 33.9268C55.6003 12.2337 85.015 0.039087 115.679 0H210.093ZM476.678 0.0195312C477.381 0.0195369 478.124 0.0390844 478.828 0.117188H478.945C479.649 0.195302 480.353 0.31252 481.057 0.429688H481.193C481.878 0.585906 482.562 0.742217 483.227 0.9375H483.402C484.047 1.13277 484.712 1.34769 485.357 1.60156L485.592 1.67969C486.217 1.9531 486.824 2.22661 487.41 2.53906L487.684 2.67578C488.27 2.98821 488.857 3.31943 489.404 3.69043L489.658 3.84668C490.245 4.23723 490.812 4.66705 491.359 5.09668L491.516 5.21387C492.122 5.7021 492.689 6.22959 493.236 6.77637C493.784 7.32308 494.311 7.90932 494.8 8.49512H494.819L494.937 8.65137C495.366 9.19796 495.797 9.76394 496.188 10.3496C496.227 10.4472 496.286 10.5254 496.345 10.6035V10.584C496.657 11.1502 497.009 11.7365 497.321 12.3223L497.459 12.5957C497.772 13.1815 498.045 13.8068 498.318 14.4316L498.397 14.6465C498.652 15.2713 498.886 15.9357 499.081 16.5996V16.7559C499.276 17.4392 499.453 18.1223 499.59 18.8252C499.57 18.8642 499.57 18.9033 499.59 18.9424H499.57C499.707 19.6454 499.805 20.3488 499.883 21.0518V21.1689C500 21.8915 500 22.6144 500 23.3564V169.291C500 182.238 489.482 192.724 476.541 192.725C463.58 192.725 453.081 182.238 453.081 169.291L453.08 79.9092L266.44 266.328C262.061 270.8 256.06 273.319 249.804 273.339C243.567 273.358 237.546 270.898 233.128 266.465C228.71 262.051 226.228 256.056 226.267 249.807C226.286 243.558 228.808 237.582 233.265 233.208L419.885 46.8682H330.405C317.464 46.868 306.946 36.3815 306.946 23.4346C306.946 10.507 317.464 0.000205729 330.405 0L476.678 0.0195312Z" fill="currentColor"/>
</svg>
