<svg width="500" height="500" viewBox="0 0 500 500" fill="none" xmlns="http://www.w3.org/2000/svg">
<rect width="500" height="500" rx="250" fill="currentColor"/>
<path d="M151.086 174.746C157.443 201.131 193.771 203.867 202.845 177.471C203.751 177.471 205.564 178.379 211.014 176.563C223.728 191.117 246.437 189.301 255.511 172.01C264.587 185.656 282.75 190.209 298.196 181.103C316.359 192.933 340.881 180.195 340.881 158.351C340.881 140.152 323.623 126.506 305.458 132.875C297.289 123.782 284.576 120.137 271.863 123.782C262.788 111.952 246.437 109.228 233.724 118.321C220.104 100.122 193.772 98.3057 178.325 114.676C160.162 107.399 141.091 121.045 141.091 140.152C117.477 140.152 117.477 176.552 141.091 176.552C144.729 177.484 148.367 176.563 151.086 174.746Z" fill="white"/>
<path d="M340.98 213.682H322.787V203.653C315.512 205.472 306.41 204.562 298.227 201.834C284.586 206.394 269.116 205.484 256.381 197.273C242.739 206.381 225.454 207.303 210.905 199.092C190.908 220.062 157.247 218.243 140.881 195.454V359.497C140.881 379.544 157.258 395.954 177.268 395.954H286.413C306.422 395.954 322.801 379.545 322.801 359.497H340.994C361.002 359.497 377.381 343.088 377.381 323.039V250.14C377.368 230.093 360.99 213.682 340.98 213.682ZM186.359 350.387C186.359 355.856 182.715 359.495 177.268 359.495C171.809 359.495 168.178 355.844 168.178 350.387V250.137C168.178 244.667 171.821 241.029 177.268 241.029C182.727 241.029 186.359 244.679 186.359 250.137V350.387ZM240.939 350.387C240.939 355.856 237.296 359.495 231.849 359.495C226.39 359.495 222.759 355.844 222.759 350.387V250.137C222.759 244.667 226.402 241.029 231.849 241.029C237.308 241.029 240.939 244.679 240.939 250.137V350.387ZM295.507 350.387C295.507 355.856 291.864 359.495 286.417 359.495C280.958 359.495 277.327 355.844 277.327 350.387V250.137C277.327 244.667 280.97 241.029 286.417 241.029C291.876 241.029 295.507 244.679 295.507 250.137V350.387ZM359.177 323.038C359.177 333.068 350.994 341.266 340.984 341.266H322.791V231.91H340.984C350.994 231.91 359.177 240.108 359.177 250.138V323.038Z" fill="white"/>
</svg>
