<svg width="500" height="500" viewBox="0 0 500 500" fill="none" xmlns="http://www.w3.org/2000/svg">
<rect width="500" height="500" rx="250" fill="currentColor"/>
<path d="M364.817 189.383C362.81 178.004 356.751 167.743 347.756 160.479L342.637 135.289C339.401 119.105 324.422 108.028 308.014 109.659C291.593 111.29 279.098 125.114 279.11 141.611V168.809C274.356 174.943 271.182 182.144 269.877 189.784H228.127C226.823 182.144 223.649 174.943 218.894 168.809V141.611C218.907 125.114 206.412 111.29 189.991 109.659C173.582 108.028 158.603 119.105 155.367 135.289L150.249 160.479C141.254 167.743 135.195 178.004 133.188 189.383C133.188 189.383 108.499 310.014 108.499 325.269C108.499 348.577 120.931 370.105 141.115 381.759C161.299 393.414 186.163 393.413 206.348 381.759C226.532 370.105 238.964 348.578 238.964 325.269C238.964 310.616 234.849 270.069 234.849 270.069H263.151C263.151 270.069 259.036 310.614 259.036 325.269C259.036 348.577 271.468 370.105 291.652 381.759C311.836 393.414 336.7 393.413 356.885 381.759C377.069 370.105 389.501 348.578 389.501 325.269C389.501 310.014 364.812 189.383 364.812 189.383H364.817ZM175.036 139.203C176.252 133.144 181.873 129.004 188.02 129.631C194.167 130.246 198.834 135.427 198.821 141.611V153.253C193.063 150.87 186.891 149.64 180.656 149.64C178.034 149.665 175.412 149.904 172.828 150.343L175.036 139.203ZM173.731 370.432C148.804 370.394 128.606 350.197 128.571 325.272C128.207 313.191 132.848 301.487 141.404 292.945C149.947 284.389 161.652 279.747 173.731 280.111C198.671 280.111 218.892 300.334 218.892 325.271C218.892 350.209 198.669 370.432 173.731 370.432ZM264.758 250H233.245L229.933 209.856H268.07L264.758 250ZM299.182 141.611C299.17 135.427 303.837 130.246 309.984 129.631C316.131 129.004 321.751 133.144 322.968 139.203L325.176 150.343C322.592 149.904 319.97 149.665 317.348 149.64C311.113 149.64 304.941 150.87 299.183 153.253L299.182 141.611ZM324.272 370.432C299.333 370.432 279.112 350.21 279.112 325.272C279.112 300.334 299.335 280.111 324.272 280.111C336.353 279.748 348.058 284.389 356.6 292.945C365.155 301.488 369.797 313.193 369.433 325.272C369.396 350.199 349.198 370.397 324.272 370.432Z" fill="white"/>
</svg>
