<svg width="500" height="500" viewBox="0 0 500 500" fill="none" xmlns="http://www.w3.org/2000/svg">
<rect width="500" height="500" rx="250" fill="currentColor"/>
<path d="M237 157.718L250 138.5L263 157.718V248.5H237V157.718Z" fill="white"/>
<path d="M349.122 180.889L371.927 180.345L360.054 199.823L252.482 261.93L241.55 242.995L349.122 180.889Z" fill="white"/>
<path d="M268 249.75C268 259.829 259.941 268 250 268C240.059 268 232 259.829 232 249.75C232 239.671 240.059 231.5 250 231.5C259.941 231.5 268 239.671 268 249.75Z" fill="white"/>
<path d="M263.523 54.7212V104.814H238.523V54.7212H263.523Z" fill="white"/>
<path d="M427.541 162.449L384.16 187.495L371.66 165.845L415.041 140.798L427.541 162.449Z" fill="white"/>
<path d="M443.764 261.903H393.672V236.903H443.764V261.903Z" fill="white"/>
<path d="M411.096 356.988L367.715 331.941L380.215 310.291L423.596 335.337L411.096 356.988Z" fill="white"/>
<path d="M335.263 422.999L310.216 379.617L331.867 367.117L356.913 410.499L335.263 422.999Z" fill="white"/>
<path d="M236.583 442.25V392.157H261.583V442.25H236.583Z" fill="white"/>
<path d="M141.498 409.582L166.545 366.2L188.195 378.7L163.149 422.082L141.498 409.582Z" fill="white"/>
<path d="M75.4866 333.748L118.868 308.702L131.368 330.352L87.9866 355.399L75.4866 333.748Z" fill="white"/>
<path d="M56.2356 235.068H106.328V260.068H56.2356V235.068Z" fill="white"/>
<path d="M88.9039 139.984L132.285 165.03L119.785 186.681L76.4039 161.634L88.9039 139.984Z" fill="white"/>
<path d="M164.737 73.9722L189.784 117.354L168.133 129.854L143.087 86.4722L164.737 73.9722Z" fill="white"/>
<path opacity="0.5" d="M250.5 54.5C323.786 54.5 388.006 93.6289 422 153.365L377.756 178.5C352.69 134.453 305.244 105.352 250.5 105.352V54.5Z" fill="white"/>
</svg>
