<svg width="500" height="500" viewBox="0 0 500 500" fill="none" xmlns="http://www.w3.org/2000/svg">
<rect width="500" height="500" rx="250" fill="currentColor"/>
<path d="M150.925 182.827C150.925 170.277 154.954 157.596 163.012 144.782C171.07 131.836 182.827 121.136 198.283 112.682C213.738 104.227 231.77 100 252.378 100C271.532 100 288.441 103.567 303.104 110.7C317.768 117.701 329.062 127.279 336.988 139.432C345.046 151.585 349.075 164.795 349.075 179.062C349.075 190.291 346.764 200.132 342.14 208.587C337.649 217.041 332.233 224.373 325.892 230.581C319.683 236.658 308.454 246.962 292.206 261.493C287.715 265.588 284.082 269.221 281.308 272.391C278.666 275.429 276.684 278.269 275.363 280.911C274.042 283.421 272.986 285.997 272.193 288.639C271.532 291.149 270.476 295.641 269.022 302.114C266.513 315.852 258.653 322.721 245.443 322.721C238.573 322.721 232.761 320.476 228.005 315.984C223.382 311.493 221.07 304.822 221.07 295.971C221.07 284.874 222.787 275.297 226.222 267.239C229.657 259.049 234.214 251.915 239.894 245.839C245.575 239.63 253.236 232.299 262.88 223.844C271.334 216.446 277.411 210.898 281.11 207.199C284.941 203.369 288.111 199.141 290.621 194.518C293.263 189.894 294.584 184.875 294.584 179.458C294.584 168.89 290.621 159.974 282.695 152.708C274.901 145.443 264.795 141.81 252.378 141.81C237.847 141.81 227.147 145.509 220.277 152.906C213.408 160.172 207.596 170.938 202.84 185.205C198.349 200.132 189.828 207.596 177.279 207.596C169.881 207.596 163.606 205.02 158.454 199.868C153.435 194.584 150.925 188.904 150.925 182.827ZM247.622 400C239.564 400 232.497 397.424 226.42 392.272C220.476 386.988 217.503 379.657 217.503 370.277C217.503 361.955 220.41 354.954 226.222 349.273C232.034 343.593 239.168 340.753 247.622 340.753C255.945 340.753 262.946 343.593 268.626 349.273C274.307 354.954 277.147 361.955 277.147 370.277C277.147 379.524 274.174 386.79 268.23 392.074C262.285 397.358 255.416 400 247.622 400Z" fill="white"/>
</svg>
