<svg width="500" height="500" viewBox="0 0 500 500" fill="none" xmlns="http://www.w3.org/2000/svg">
<rect width="500" height="500" rx="250" fill="currentColor"/>
<path d="M379.06 239H120.94C115.459 239 111.012 243.447 111.012 248.928C111.012 254.408 115.459 258.855 120.94 258.855H132.289L139.477 359.542C140.214 369.935 148.861 377.989 159.281 377.989H340.72C351.138 377.989 359.786 369.935 360.523 359.542L367.711 258.855H379.06C384.541 258.855 388.988 254.408 388.988 248.928C388.988 243.447 384.541 239 379.06 239ZM200.361 333.313C200.361 336.054 198.138 338.277 195.398 338.277H185.47C182.729 338.277 180.506 336.054 180.506 333.313V283.675C180.506 280.934 182.729 278.711 185.47 278.711H195.398C198.138 278.711 200.361 280.934 200.361 283.675V333.313ZM259.928 333.313C259.928 336.054 257.704 338.277 254.964 338.277H245.036C242.296 338.277 240.072 336.054 240.072 333.313V283.675C240.072 280.934 242.296 278.711 245.036 278.711H254.964C257.704 278.711 259.928 280.934 259.928 283.675V333.313ZM319.494 333.313C319.494 336.054 317.271 338.277 314.53 338.277H304.602C301.862 338.277 299.639 336.054 299.639 333.313V283.675C299.639 280.934 301.862 278.711 304.602 278.711H314.53C317.271 278.711 319.494 280.934 319.494 283.675V333.313Z" fill="white"/>
<path d="M348.112 101.822C305.493 86.3097 272.943 175.452 262.046 219.144H350.621C364.737 182.263 385.212 115.33 348.112 101.822ZM340.343 193.693C338.223 197.144 333.66 198.308 330.092 196.123C322.272 191.302 312.602 187.798 300.529 185.433C296.496 184.644 293.872 180.727 294.66 176.681C295.449 172.648 299.353 170.024 303.411 170.813C317.269 173.54 328.554 177.664 337.914 183.429C341.417 185.601 342.502 190.177 340.343 193.693ZM342.761 155.276C336.039 150.209 327.391 147.093 317.062 146.033C312.977 145.607 309.991 141.948 310.418 137.863C310.845 133.766 314.542 130.844 318.588 131.219C331.644 132.576 342.8 136.661 351.707 143.383C354.99 145.865 355.649 150.532 353.168 153.815C350.711 157.085 346.031 157.745 342.761 155.276Z" fill="white"/>
<path d="M142.877 219.145L140.847 195.928C140.291 189.542 145.01 183.906 151.408 183.338H151.46C157.354 182.82 161.918 177.947 162.06 172.039L163.223 122.298C158.246 122.169 154.006 118.485 153.554 113.392C153.076 107.924 157.109 103.115 162.577 102.637L192.244 100.039C197.711 99.5602 202.52 103.593 202.999 109.061C203.438 114.142 199.909 118.511 195.036 119.506L204.821 168.291C205.985 174.095 211.323 178.089 217.218 177.585H217.27C223.656 177.029 229.292 181.748 229.86 188.146L232.562 219.145L142.877 219.145Z" fill="white"/>
</svg>
