<svg width="500" height="500" viewBox="0 0 500 500" fill="none" xmlns="http://www.w3.org/2000/svg">
<path d="M375 250C375 319.036 319.036 375 250 375C180.964 375 125 319.036 125 250C125 180.964 180.964 125 250 125C319.036 125 375 180.964 375 250Z" fill="currentColor"/>
<path d="M375 250C375 319.036 319.036 375 250 375C180.964 375 125 319.036 125 250C125 180.964 180.964 125 250 125C319.036 125 375 180.964 375 250Z" fill="white"/>
<path d="M315 250C315 214.101 285.899 185 250 185C214.101 185 185 214.101 185 250C185 285.899 214.101 315 250 315V375C180.964 375 125 319.036 125 250C125 180.964 180.964 125 250 125C319.036 125 375 180.964 375 250C375 319.036 319.036 375 250 375V315C285.899 315 315 285.899 315 250Z" fill="currentColor"/>
</svg>
