<svg width="500" height="500" viewBox="0 0 500 500" fill="none" xmlns="http://www.w3.org/2000/svg">
<rect width="500" height="500" rx="250" fill="currentColor"/>
<path d="M403.437 335.025C428.867 334.984 449.464 314.398 449.505 288.984V187.836C449.532 175.619 444.674 163.897 436.005 155.287L375.845 94.8305L352.523 118.139L382.475 148.221L378.449 167.453L378.462 167.439C375.953 179.214 380.663 191.338 390.446 198.339L416.519 216.98V289.079C416.519 296.295 410.669 302.142 403.449 302.142C396.229 302.142 390.378 296.295 390.378 289.079V261.962C390.338 236.548 369.74 215.963 344.31 215.922H327.134V153.772C327.12 138.349 321.806 123.409 312.091 111.433C302.362 99.4568 288.822 91.1823 273.711 87.9904C250.804 83.3365 227.172 83.3365 204.252 87.9904C189.182 91.2091 175.668 99.4973 165.965 111.473C156.276 123.436 150.975 138.376 150.975 153.771V344.092H139.904C128.739 344.092 119.695 353.131 119.695 364.289C119.695 375.447 128.739 384.5 139.904 384.5H338.055C349.22 384.5 358.278 375.447 358.278 364.289C358.278 353.131 349.22 344.092 338.055 344.092H327.038V248.887H344.215C351.407 248.9 357.245 254.734 357.258 261.923V288.947C357.272 301.178 362.143 312.899 370.798 321.549C379.454 330.186 391.196 335.028 403.434 335.028L403.437 335.025ZM262.145 234.495H215.901C207.877 234.495 201.368 227.99 201.368 219.97C201.368 211.95 207.877 205.446 215.901 205.446H262.145C270.169 205.446 276.678 211.95 276.678 219.97C276.678 227.99 270.17 234.495 262.145 234.495ZM262.145 178.436H215.901C207.877 178.436 201.368 171.932 201.368 163.912C201.368 155.892 207.877 149.387 215.901 149.387H262.145C270.169 149.387 276.678 155.891 276.678 163.912C276.678 171.931 270.17 178.436 262.145 178.436Z" fill="white"/>
</svg>
