<svg width="500" height="500" viewBox="0 0 500 500" fill="none" xmlns="http://www.w3.org/2000/svg">
<rect width="500" height="500" rx="250" fill="currentColor"/>
<path d="M373.119 375C382.825 375 390.679 367.146 390.679 357.44C390.679 347.734 382.825 339.88 373.119 339.88H365.745L270.435 173.062L300.599 120.382C305.452 111.963 302.554 101.194 294.117 96.3404C285.697 91.5045 274.928 94.4027 270.092 102.823L250.2 137.685L230.308 102.823C225.472 94.4027 214.703 91.5049 206.283 96.3404C197.846 101.194 194.948 111.963 199.801 120.382L229.965 173.062L134.655 339.88H127.281C117.575 339.88 109.721 347.734 109.721 357.44C109.721 367.146 117.575 375 127.281 375H373.119ZM215.559 339.88L241.899 293.443C243.579 290.545 246.666 288.762 249.993 288.762C253.337 288.762 256.424 290.545 258.104 293.443L284.444 339.88H215.559Z" fill="white"/>
</svg>
