<svg width="500" height="500" viewBox="0 0 500 500" fill="none" xmlns="http://www.w3.org/2000/svg">
<rect width="500" height="500" rx="250" fill="currentColor"/>
<path d="M231.372 112.364C242.162 103.206 258.006 103.206 268.795 112.364L388.808 212.395C392.374 215.158 394.45 219.432 394.405 223.943C394.439 230.529 394.44 236.991 394.44 243.375L394.437 243.379C394.719 245.387 394.042 247.417 392.609 248.849C391.164 250.293 389.144 250.969 387.124 250.687H360.806C356.619 250.687 355.952 251.409 355.952 255.65V344.225C356.347 349.48 354.451 354.646 350.749 358.401C347.059 362.156 341.913 364.13 336.654 363.826H287.538C280.925 363.826 279.13 361.92 279.13 355.165V309.783C279.085 295.392 268.442 283.235 254.177 281.273C239.912 279.311 226.38 288.141 222.443 301.99C221.54 305.193 221.088 308.509 221.088 311.836V355.343C221.088 361.896 219.091 364.004 212.421 364.005H164.085C151.547 364.004 143.861 356.493 144.03 343.998V255.737C144.03 251.723 143.274 250.978 139.29 250.978H114.564C107.566 250.978 105.524 249.038 105.524 242.317V224.781C105.253 220.022 107.329 215.431 111.076 212.488C147.824 181.925 184.547 151.351 221.26 120.765L231.372 112.364ZM317.062 105.623C327.723 105.454 338.395 105.454 349.055 105.623C353.937 105.533 358.013 109.364 358.226 114.277C358.338 131.417 358.171 148.377 358.171 166.035L335.808 147.339C327.208 140.161 318.607 132.916 310.007 125.794C308.54 124.813 307.734 123.089 307.913 121.32C308.081 119.359 307.913 117.365 307.913 115.381C307.745 112.835 308.641 110.344 310.377 108.496C312.113 106.648 314.531 105.6 317.062 105.623Z" fill="white"/>
</svg>
