<svg width="500" height="500" viewBox="0 0 500 500" fill="none" xmlns="http://www.w3.org/2000/svg">
<rect width="500" height="500" rx="250" fill="currentColor"/>
<path d="M311.452 100C318.751 100 324.674 105.922 324.674 113.222L324.709 302.424H349.482C368.919 302.424 384.74 286.603 384.74 267.166V262.104C369.177 257.938 356.54 242.977 351.462 223.317C349.017 213.849 354.509 204.002 362.032 204.002H366.835V188.61C366.835 183.739 370.778 179.796 375.649 179.796C380.521 179.796 384.464 183.738 384.464 188.61V204.002H402.609V188.61C402.61 183.739 406.552 179.796 411.424 179.796C416.296 179.796 420.238 183.738 420.238 188.61V204.002H425.042C432.565 204.002 438.056 213.846 435.611 223.331C430.532 243.009 417.897 257.952 402.334 262.118V267.179C402.334 296.342 378.611 320.066 349.447 320.066H324.674V373.557H332.128C339.427 373.557 345.35 379.479 345.35 386.778C345.35 394.077 339.427 400 332.128 400H129.722C122.423 400 116.5 394.077 116.5 386.778C116.5 379.479 122.423 373.557 129.722 373.557H137.469V113.222C137.469 105.923 143.391 100 150.69 100H311.452ZM259.759 133.773C256.533 132.179 252.652 133.117 250.502 135.978L162 253.772C160.27 256.023 160.037 259.071 161.299 261.65C162.561 264.229 165.179 265.824 167.984 265.824H224.227L203.328 343.574C202.393 347.044 204.03 350.703 207.256 352.25C208.284 352.766 209.406 353 210.528 353C212.819 353 215.063 351.968 216.513 349.999L305.015 232.203C306.698 229.952 306.978 226.903 305.716 224.324C304.454 221.792 301.835 220.151 299.03 220.15H242.788L263.686 142.448C264.62 138.978 262.984 135.321 259.759 133.773Z" fill="white"/>
</svg>
