<svg width="500" height="500" viewBox="0 0 500 500" fill="none" xmlns="http://www.w3.org/2000/svg">
<rect width="500" height="500" rx="250" fill="currentColor"/>
<path d="M128.182 141.5C131.9 141.5 134.876 144.478 134.876 148.195L134.861 206.939C134.861 215.493 127.804 222.552 119.25 222.552H115.91L122.604 338.543C123.345 349.319 114.791 358.613 104.016 358.613H103.639C92.863 358.613 84.3082 349.319 85.0488 338.543L92.1074 222.552H88.7666C80.2128 222.552 73.1553 215.493 73.1553 206.939V148.195C73.1553 144.477 76.1327 141.5 79.8506 141.5C83.5683 141.5 86.5449 144.478 86.5449 148.195V198.385C86.5449 200.244 88.0268 201.726 89.8857 201.726H93.9805C95.8394 201.726 97.3213 200.244 97.3213 198.385V148.195C97.3213 144.477 100.299 141.5 104.017 141.5C107.734 141.5 110.711 144.478 110.711 148.195V198.385C110.711 200.244 112.193 201.726 114.052 201.726H118.146C120.005 201.726 121.487 200.244 121.487 198.385V148.195C121.487 144.478 124.464 141.5 128.182 141.5ZM417.43 142.239C421.51 140.38 426.347 143.359 426.347 147.817V340.023C426.347 350.436 418.171 358.612 407.758 358.612C396.227 358.612 387.31 348.199 389.169 337.046L400.7 263.069H394.383C385.466 263.069 378.393 255.634 378.771 246.717L380.63 196.527C381.733 172.723 396.241 151.911 417.43 142.239ZM251.229 141.548C311.059 141.548 359.745 190.222 359.745 250.056C359.745 309.889 311.063 358.563 251.229 358.563C191.415 358.563 142.729 309.893 142.729 250.056C142.73 190.237 191.396 141.548 251.229 141.548ZM250.995 170C206.882 170 171 205.897 171 250C171 293.772 206.336 329.439 249.963 329.994L250.995 330C294.764 330 330.439 294.672 330.994 251.032L331 250C331 206.231 295.664 170.561 252.027 170.006L250.995 170ZM250.995 185C286.823 185 316 214.172 316 250C316 285.828 286.826 315 250.995 315C215.179 315 186 285.832 186 250C186 214.179 215.168 185 250.995 185Z" fill="white"/>
</svg>
