<svg width="500" height="500" viewBox="0 0 500 500" fill="none" xmlns="http://www.w3.org/2000/svg">
<rect width="500" height="500" rx="250" fill="currentColor"/>
<path d="M114.224 138.878C121.435 138.878 127.293 144.735 127.293 151.96V282.731H388.835V217.348C388.835 210.122 394.693 204.265 401.918 204.265C409.143 204.265 415 210.123 415 217.348V361.202H388.849V321.969H127.293L127.279 361.212H101.128V151.974C101.128 144.749 106.985 138.891 114.21 138.891L114.224 138.878Z" fill="white"/>
<path d="M323.448 218.108C352.337 218.109 375.751 241.538 375.765 270.426H205.761V218.108H323.448Z" fill="white"/>
<path d="M166.528 218.107C180.965 218.107 192.68 229.822 192.68 244.272C192.68 258.71 180.965 270.424 166.528 270.424C152.078 270.424 140.377 258.709 140.377 244.272C140.377 229.822 152.078 218.108 166.528 218.107Z" fill="white"/>
</svg>
