<svg width="500" height="500" viewBox="0 0 500 500" fill="none" xmlns="http://www.w3.org/2000/svg">
<rect width="500" height="500" rx="250" fill="currentColor"/>
<path d="M416.687 128.648C408.291 122.756 399.168 118.869 389.549 116.325C370.311 111.234 349.087 111.452 327.87 111.688C306.653 111.922 285.435 112.157 266.191 107.05C256.965 104.608 248.118 100.811 240.215 95.4565C233.896 91.1645 228.136 85.789 223.154 79.7725L224.975 74.852C227.851 67.083 223.885 58.4535 216.116 55.5775C208.347 52.7 199.717 56.668 196.841 64.437L81.153 376.936C78.277 384.705 82.2435 393.335 90.0125 396.211C91.73 396.846 93.488 397.148 95.218 397.148C101.314 397.148 107.046 393.403 109.287 387.351L109.695 386.249L109.962 386.347L161.431 247.271C202.742 297.425 273.096 269.173 327.628 283.63C337.247 286.175 346.376 290.078 354.766 295.953C363.162 301.845 370.808 309.732 377.472 320.279C384.348 301.679 391.23 283.095 398.112 264.51C404.988 245.91 411.87 227.327 418.752 208.742C425.628 190.142 432.51 171.558 439.392 152.973C432.722 142.41 425.076 134.523 416.687 128.648Z" fill="white"/>
</svg>
