<svg width="500" height="500" viewBox="0 0 500 500" fill="none" xmlns="http://www.w3.org/2000/svg">
<rect x="0.5" y="0.5" width="499" height="499" stroke="black"/>
<path d="M128.787 10.7874C140.503 -0.928329 159.498 -0.928301 171.213 10.7874C182.929 22.5031 182.929 41.4976 171.213 53.2132L104.426 120H308.955C413.354 120 498 204.611 498 309C498 413.39 413.354 498 308.955 498C292.387 498 278.956 484.569 278.955 468C278.955 451.432 292.387 438 308.955 438C380.233 438 438 380.237 438 309C438 237.764 380.233 180 308.955 180H104.426L171.213 246.787C182.929 258.503 182.929 277.499 171.213 289.214C159.498 300.929 140.503 300.929 128.787 289.214L10.7875 171.213C-0.928185 159.497 -0.928189 140.503 10.7875 128.787L128.787 10.7874Z" fill="black"/>
</svg>
