<svg width="235" height="237" viewBox="0 0 235 237" fill="none" xmlns="http://www.w3.org/2000/svg">
<g filter="url(#filter0_f_288_1074)">
<path d="M162.039 213.87C157.915 217.88 151.267 217.593 147.504 213.242L22.672 68.903L70.0275 22.8568L210.811 151.685C215.054 155.569 215.155 162.222 211.031 166.232L162.039 213.87Z" fill="black" fill-opacity="0.5"/>
</g>
<rect x="58.4053" y="0.376953" width="219.438" height="81.4635" rx="10" transform="rotate(45.8031 58.4053 0.376953)" fill="#FF6500"/>
<g filter="url(#filter1_d_288_1074)">
<path d="M49.2537 49.3938C47.1917 51.3988 43.8947 51.3526 41.8897 49.2906C39.8847 47.2285 39.9309 43.9316 41.9929 41.9265C44.055 39.9215 47.3519 39.9677 49.357 42.0298C51.362 44.0918 51.3158 47.3888 49.2537 49.3938Z" fill="url(#paint0_radial_288_1074)"/>
</g>
<path d="M119.207 148.963L156.832 132.404L161.02 136.711L143.413 173.857L138.706 169.017L142.69 160.8L132.258 150.071L123.971 153.863L119.207 148.963ZM137.803 147.525L145.353 155.289L150.738 144.133C150.885 143.837 151.058 143.489 151.258 143.089C151.458 142.69 151.652 142.297 151.839 141.91C152.039 141.511 152.231 141.17 152.417 140.887C152.116 141.051 151.763 141.228 151.358 141.416C150.979 141.605 150.587 141.794 150.182 141.983C149.778 142.172 149.425 142.335 149.124 142.474L137.803 147.525Z" fill="black"/>
<path d="M106.031 135.412L129.288 112.798L121.699 104.994L126.059 100.755L145.673 120.928L141.314 125.166L133.725 117.362L110.469 139.976L106.031 135.412Z" fill="black"/>
<path d="M73.0527 101.496L100.669 74.6433L118.113 92.5832L113.813 96.7645L100.807 83.3887L93.9024 90.1019L101.875 98.3012L97.5749 102.483L89.6022 94.2832L81.8302 101.84L95.6431 116.046L91.3034 120.266L73.0527 101.496Z" fill="black"/>
<path d="M45.3486 73.0037L72.9648 46.1509L83.8769 57.3732C86.0413 59.5992 87.3831 61.7027 87.9021 63.6836C88.4471 65.6649 88.4167 67.4754 87.8109 69.1152C87.231 70.7553 86.323 72.1763 85.0868 73.3783C83.8375 74.5931 82.4054 75.3962 80.7905 75.7877C79.2016 76.1796 77.5356 76.0186 75.7925 75.3047C76.4496 76.6646 76.7823 78.0066 76.7908 79.3309C76.7992 80.6552 76.5426 81.9041 76.0208 83.0778C75.499 84.2514 74.7778 85.2857 73.8573 86.1808C72.8973 87.1143 71.7772 87.8831 70.497 88.4872C69.2428 89.0918 67.8753 89.422 66.3947 89.478C64.9272 89.5212 63.3804 89.1802 61.7543 88.4551C60.141 87.7431 58.5019 86.531 56.8369 84.8187L45.3486 73.0037ZM54.0274 73.4438L61.4046 81.0307C62.4932 82.1503 63.5292 82.8342 64.5125 83.0825C65.5086 83.3439 66.4047 83.3182 67.2007 83.0055C68.0227 82.6931 68.7296 82.2492 69.3213 81.6738C70.0315 80.9833 70.5679 80.1799 70.9305 79.2635C71.2931 78.3472 71.2874 77.3021 70.9135 76.1282C70.5527 74.9415 69.6487 73.6039 68.2014 72.1155L61.977 65.7141L54.0274 73.4438ZM66.0997 61.7053L71.9591 67.7314C73.5601 69.3778 75.08 70.2831 76.5187 70.4473C77.9575 70.6114 79.2227 70.1628 80.3142 69.1014C80.8665 68.5644 81.3098 67.9284 81.644 67.1933C81.9911 66.4715 82.0474 65.648 81.813 64.7228C81.5917 63.7848 80.924 62.7429 79.8097 61.5969L73.201 54.8003L66.0997 61.7053Z" fill="black"/>
<path d="M168.975 172.518C167.231 174.213 164.443 174.174 162.748 172.431C161.052 170.687 161.092 167.899 162.835 166.204C164.579 164.508 167.367 164.547 169.062 166.291C170.757 168.035 170.718 170.822 168.975 172.518Z" fill="#266149"/>
<path d="M168.975 172.518C167.231 174.213 164.443 174.174 162.748 172.431C161.052 170.687 161.092 167.899 162.835 166.204C164.579 164.508 167.367 164.547 169.062 166.291C170.757 168.035 170.718 170.822 168.975 172.518Z" fill="url(#paint1_radial_288_1074)" fill-opacity="0.5"/>
<path d="M168.975 172.518C167.231 174.213 164.443 174.174 162.748 172.431C161.052 170.687 161.092 167.899 162.835 166.204C164.579 164.508 167.367 164.547 169.062 166.291C170.757 168.035 170.718 170.822 168.975 172.518Z" stroke="black" stroke-width="0.5"/>
<path d="M152.099 203.063L149.994 205.109L9.29706 60.4117L11.4018 58.3652L152.099 203.063ZM154.174 203.092L199.951 158.58C200.532 158.015 200.545 157.086 199.98 156.505L59.2834 11.8073C58.7183 11.2261 57.789 11.2131 57.2078 11.7782L11.4308 56.2896C10.8497 56.8547 10.8366 57.784 11.4018 58.3652L9.29706 60.4117L9.14329 60.2453C7.65537 58.5514 7.69115 55.9984 9.22597 54.3469L9.38435 54.1849L55.1613 9.67351C56.8504 8.03109 59.5196 8.01647 61.2261 9.60242L61.3881 9.76079L202.085 154.458C203.78 156.202 203.741 158.99 201.998 160.685L156.221 205.196L156.054 205.35C154.304 206.888 151.636 206.798 149.994 205.109L152.099 203.063C152.664 203.644 153.593 203.657 154.174 203.092Z" fill="black"/>
<g filter="url(#filter2_f_288_1074)">
<circle cx="192" cy="31.377" r="4" fill="black"/>
</g>
<defs>
<filter id="filter0_f_288_1074" x="2.67188" y="2.85669" width="231.388" height="233.844" filterUnits="userSpaceOnUse" color-interpolation-filters="sRGB">
<feFlood flood-opacity="0" result="BackgroundImageFix"/>
<feBlend mode="normal" in="SourceGraphic" in2="BackgroundImageFix" result="shape"/>
<feGaussianBlur stdDeviation="10" result="effect1_foregroundBlur_288_1074"/>
</filter>
<filter id="filter1_d_288_1074" x="36.416" y="36.4524" width="18.415" height="18.4155" filterUnits="userSpaceOnUse" color-interpolation-filters="sRGB">
<feFlood flood-opacity="0" result="BackgroundImageFix"/>
<feColorMatrix in="SourceAlpha" type="matrix" values="0 0 0 0 0 0 0 0 0 0 0 0 0 0 0 0 0 0 127 0" result="hardAlpha"/>
<feMorphology radius="1" operator="dilate" in="SourceAlpha" result="effect1_dropShadow_288_1074"/>
<feOffset/>
<feGaussianBlur stdDeviation="1.5"/>
<feComposite in2="hardAlpha" operator="out"/>
<feColorMatrix type="matrix" values="0 0 0 0 0 0 0 0 0 0 0 0 0 0 0 0 0 0 1 0"/>
<feBlend mode="normal" in2="BackgroundImageFix" result="effect1_dropShadow_288_1074"/>
<feBlend mode="normal" in="SourceGraphic" in2="effect1_dropShadow_288_1074" result="shape"/>
</filter>
<filter id="filter2_f_288_1074" x="184" y="23.377" width="16" height="16" filterUnits="userSpaceOnUse" color-interpolation-filters="sRGB">
<feFlood flood-opacity="0" result="BackgroundImageFix"/>
<feBlend mode="normal" in="SourceGraphic" in2="BackgroundImageFix" result="shape"/>
<feGaussianBlur stdDeviation="2" result="effect1_foregroundBlur_288_1074"/>
</filter>
<radialGradient id="paint0_radial_288_1074" cx="0" cy="0" r="1" gradientUnits="userSpaceOnUse" gradientTransform="translate(46.8081 45.5377) rotate(45.8031) scale(5.20809 5.20767)">
<stop stop-color="white"/>
<stop offset="0.1" stop-color="#F5F5F5"/>
<stop offset="0.4" stop-color="#D7D6D6"/>
<stop offset="1" stop-color="#A19E9C"/>
</radialGradient>
<radialGradient id="paint1_radial_288_1074" cx="0" cy="0" r="1" gradientUnits="userSpaceOnUse" gradientTransform="translate(165.905 169.361) rotate(135.803) scale(4.40343)">
<stop offset="0.596154" stop-color="#666666" stop-opacity="0"/>
<stop offset="1"/>
</radialGradient>
</defs>
</svg>
