<?xml version="1.0" encoding="UTF-8"?>
<svg width="1200pt" height="1200pt" version="1.1" viewBox="0 0 1200 1200" xmlns="http://www.w3.org/2000/svg">
 <path d="m991.62 215.86c-37.586-37.598-87.602-58.309-140.75-58.309-53.195 0-103.19 20.723-140.79 58.309l-109.25 109.25c-37.586 37.598-58.297 87.613-58.297 140.79 0 33.254 8.1133 65.27 23.352 93.77l-13.789 13.812c-28.523-15.277-60.527-23.375-93.77-23.375-53.184 0-103.18 20.699-140.76 58.32l-109.26 109.26c-77.605 77.629-77.605 203.88 0.011719 281.53 37.621 37.598 87.602 58.285 140.75 58.285 53.184 0 103.18-20.699 140.79-58.285l109.25-109.25c63.371-63.371 74.93-159.19 34.824-234.48l13.895-13.895c28.5 15.277 60.504 23.398 93.781 23.398 53.184 0 103.18-20.734 140.76-58.32l109.25-109.26c37.621-37.598 58.309-87.59 58.309-140.76 0.007813-53.195-20.684-103.19-58.301-140.79zm-474.48 592.14-109.25 109.26c-15.719 15.73-36.625 24.359-58.836 24.359-22.211 0-43.117-8.6406-58.824-24.324-32.426-32.438-32.426-85.262 0-117.7l109.26-109.26c15.719-15.707 36.613-24.359 58.824-24.359 0.38281 0 0.75781 0.097657 1.1523 0.12109l-43.523 43.523c-22.645 22.621-22.645 59.316 0 81.926 11.305 11.305 26.137 16.969 40.969 16.969s29.652-5.6641 40.957-16.969l43.512-43.488c0.26953 21.695-7.7344 43.449-24.246 59.938zm392.55-392.54-109.26 109.27c-15.719 15.695-36.613 24.348-58.824 24.348-0.38281 0-0.76953-0.10938-1.1641-0.10938l57.18-57.18c22.645-22.633 22.645-59.316 0.011719-81.949-22.633-22.621-59.305-22.645-81.938 0l-57.18 57.18c-0.011719-0.39453-0.10938-0.75781-0.10938-1.1523 0-22.234 8.6406-43.129 24.359-58.848l109.26-109.25c15.707-15.719 36.59-24.359 58.824-24.359 22.223 0 43.105 8.6523 58.824 24.359 15.707 15.719 24.359 36.613 24.359 58.836 0.015626 22.246-8.6484 43.137-24.344 58.848z"/>
</svg>
