<?xml version="1.0" encoding="UTF-8"?>
<svg id="b" data-name="Layer 2" xmlns="http://www.w3.org/2000/svg" width="1022.91" height="877.481" viewBox="0 0 1022.91 877.481">
  <g id="c" data-name="MC">
    <g>
      <path d="M156.32,571.844c-4.018,1.247-6.179,1.381-9.466,4.278-2.82,2.486-5.362,11.902-1.307,14.187,1.461.823,3.104-.998,4.78-.996,1.658.003,4.86-1.652,6.077-.947,2.153,1.251,1.251,6.032,5.053,6.639,3.38.54,5.691-3.722,9.119-3.71,1.368.004,3.457.327,4.561,1.431,2.002,2.002,9.507,2.583,11.635.455,3.245-3.245,4.247-3.555,4.247-3.555,0,0,4.068,4.233,12.048,2.981,2.966-.465,6.989-1.041,7.917-4.163.865-2.909.23-4.181,3.199-4.692,8.265-1.424,7.105-9.864,7.105-9.864,0,0,3.354-1.293,3.447-4.247.072-2.269-2.178-5.5-4.567-5.5-11.97,0-60.341,6.615-63.847,7.703Z"/>
      <path d="M866.555,571.844c4.018,1.247,6.179,1.381,9.465,4.278,2.82,2.486,5.362,11.902,1.307,14.187-1.46.823-3.103-.998-4.779-.996-1.658.003-4.86-1.652-6.077-.947-2.151,1.251-1.25,6.032-5.052,6.639-3.38.54-5.692-3.722-9.119-3.71-1.368.004-3.458.327-4.561,1.431-2.002,2.002-9.507,2.583-11.636.455-3.244-3.245-4.246-3.555-4.246-3.555,0,0-4.067,4.233-12.048,2.981-2.966-.465-6.989-1.041-7.916-4.163-.865-2.909-.229-4.181-3.199-4.692-8.265-1.424-7.104-9.864-7.104-9.864,0,0-3.353-1.293-3.447-4.247-.072-2.269,2.178-5.5,4.567-5.5,11.97,0,60.341,6.615,63.847,7.703Z"/>
      <path d="M227.61,626.841l-47.863,4.863c-2.324.236-4.374,1.627-5.453,3.699-1.078,2.073-1.041,4.55.1,6.59.336.599,8.406,14.91,24.866,34.661,6.643,8.093,18.206,19.636,29.426,29.363,19.185,16.635,30.073,22.441,30.073,22.441,0,0-11.1-21.649-17.129-46.159-5.804-23.594-6.545-50.077-6.616-50.343-.877-3.292-4.015-5.461-7.405-5.116Z" fill="#fff"/>
      <path d="M795.266,626.841l47.863,4.863c2.324.236,4.374,1.627,5.453,3.699,1.077,2.073,1.039,4.55-.101,6.59-.336.599-8.406,14.91-24.866,34.661-6.643,8.093-18.205,19.636-29.427,29.363-19.184,16.635-30.072,22.441-30.072,22.441,0,0,11.099-21.649,17.129-46.159,5.805-23.594,6.545-50.077,6.616-50.343.877-3.292,4.015-5.461,7.404-5.116Z" fill="#fff"/>
      <path d="M511.473,805.422c90.164-1.488,136.443-10.516,159.653-17.501,43.093-12.97,75.531-43.194,70.6-102.382-.132-1.638-.788-4.032-.485-5.095.696-2.404,8.289-5.256,12.13-6.55,13.344-4.479,34.835-4.165,50.947-2.912,23.514,1.829,43.64,5.308,65.507,8.491,36.086,5.247,81.102,9.685,118.392,2.184,4.762-.96,11.323-1.667,14.801-3.639,1.747-.989,2.812-4.772,1.316-8.005-1.103-2.398-10.111-1.982-14.176-2.428-16.547-1.829-31.669-6.011-43.913-11.403-25.891-11.403-37.361-31.543-37.361-36.391,0-3.133,22.11-20.232,50.464-31.054,14.037-5.358,30.377-9.988,47.309-13.829,5.328-1.214,13.243-1.678,15.525-4.61.751-.95,1.063-3.913.245-6.065-.839-2.214-8.462-3.639-12.375-4.61-32.873-8.157-68.395-15.568-102.865-21.106-41.71-6.702-84.188-11.747-131.495-10.432-45.318,1.264-87.846,7.784-115.725,26.202-7.047,4.65-13.85,9.836-19.673,16.392-5.551,6.251-9.713,14.459-9.88,24.7-.437,26.86,8.74,34.581,12.083,59.591-47.423,14.129-110.16,15.291-131.023,15.099h-.037c-20.863.192-83.6-.97-131.023-15.099,3.342-25.011,12.52-32.731,12.083-59.591-.167-10.241-4.329-18.449-9.88-24.7-5.823-6.557-12.626-11.742-19.672-16.392-27.88-18.418-70.407-24.938-115.725-26.202-47.308-1.315-89.785,3.73-131.495,10.432-34.471,5.539-69.992,12.949-102.866,21.106-3.913.971-11.536,2.396-12.374,4.61-.819,2.152-.505,5.115.244,6.065,2.284,2.932,10.199,3.396,15.526,4.61,16.932,3.841,33.271,8.471,47.309,13.829,28.353,10.821,50.464,27.921,50.464,31.054,0,4.848-11.471,24.987-37.362,36.391-12.244,5.393-27.366,9.574-43.913,11.403-4.064.445-13.074.03-14.176,2.428-1.496,3.233-.43,7.016,1.317,8.005,3.477,1.972,10.04,2.679,14.8,3.639,37.29,7.502,82.306,3.064,118.393-2.184,21.866-3.184,41.992-6.662,65.506-8.491,16.113-1.253,37.604-1.566,50.947,2.912,3.841,1.294,11.434,4.145,12.131,6.55.303,1.062-.354,3.457-.485,5.095-4.932,59.188,27.506,89.412,70.599,102.382,23.21,6.985,69.488,16.013,159.652,17.501h.037Z" fill="#fff"/>
      <path d="M282.1,669.453s8.937-38.734,19.741-59.223c3.351-6.353,6.169-9.049,13.983-9.459,7.814-.411,16.45-1.233,30.845.411,14.395,1.645,23.442,2.057,29.2.823,5.758-1.234,12.749-3.291,2.467-20.152-10.282-16.862-44.005-38.248-104.462-42.36-60.457-4.113-138.94-1.417-254.918,27.783,0,0,37.999.914,83.6,31.694,12.812,8.648,20.197,15.084,20.633,23.447.391,7.496-21.774,44.784-78.394,51.973,0,0,55.934,4.935,127.083-7.815,71.15-12.749,98.294-4.935,110.221,2.879Z" fill="#a1a1a1"/>
      <path d="M511.457,679.338c50.92,0,84.707-3.212,131.355-14.219,33.819-7.98,54.086-21.859,70.511-47.996,0,0,54.615,102.93-13.939,147.939-19.766,12.978-75.445,29.982-187.926,29.982h-.021c-112.48,0-168.16-17.004-187.926-29.982-68.555-45.009-13.939-147.939-13.939-147.939,16.425,26.136,36.691,40.016,70.511,47.996,46.648,11.007,80.435,14.219,131.355,14.219h.021Z" fill="#a1a1a1"/>
      <path d="M740.795,669.453s-8.937-38.734-19.741-59.223c-3.351-6.353-6.17-9.049-13.983-9.459-7.814-.411-16.451-1.233-30.846.411-14.394,1.645-23.441,2.057-29.199.823-5.758-1.234-12.749-3.291-2.468-20.152,10.28-16.862,44.005-38.248,104.462-42.36,60.457-4.113,138.939-1.417,254.918,27.783,0,0-37.999.914-83.6,31.694-12.812,8.648-20.197,15.084-20.634,23.447-.392,7.496,21.774,44.784,78.393,51.973,0,0-55.934,4.935-127.084-7.815-71.149-12.749-98.294-4.935-110.219,2.879Z" fill="#a1a1a1"/>
      <path d="M120.381,607.887l5.364,8.124c8.105-.606,16.622-1.681,24.894-2.87l-.889-9.01c-10.019,1.548-20.986,3.129-29.369,3.756ZM163.892,601.915c-1.398.216-2.886.451-4.43.694l.896,9.08c1.667-.256,3.313-.511,4.93-.762,7.949-1.231,15.498-2.4,22.054-3.155l-.782-9.089c-6.795.775-14.524,1.97-22.669,3.233ZM272.891,599.433l-1.126,9.076c16.415,2.7,24.31,6.173,24.462,6.245l3.903-7.337c-1.125-1.125-9.938-5.09-27.239-7.984ZM197.112,606.815c10.039-.864,19.248-1.293,27.69-1.412l.387-9.155c-8.799.122-18.401.576-28.858,1.479l.782,9.088ZM234.625,605.408c10.543.164,19.663.831,27.419,1.738l1.128-9.097c-8.017-.952-17.384-1.632-28.16-1.794l-.387,9.154Z" fill="#ff0"/>
      <path d="M873.091,604.131l-.89,9.01c8.272,1.189,16.788,2.264,24.894,2.87l5.364-8.124c-8.382-.627-19.351-2.208-29.368-3.756ZM836.278,598.683l-.781,9.089c6.557.755,14.106,1.924,22.054,3.155,1.617.25,3.265.506,4.932.762l.895-9.08c-1.544-.243-3.032-.478-4.43-.694-8.145-1.263-15.874-2.457-22.67-3.233ZM722.711,607.417l3.901,7.337c.153-.072,8.048-3.545,24.464-6.245l-1.127-9.076c-17.302,2.894-26.114,6.859-27.238,7.984ZM826.511,597.727c-10.457-.903-20.06-1.357-28.858-1.479l.386,9.155c8.442.119,17.651.548,27.691,1.412l.781-9.088ZM787.829,596.254c-10.777.163-20.145.842-28.161,1.794l1.128,9.097c7.755-.907,16.876-1.574,27.419-1.738l-.386-9.154Z" fill="#ff0"/>
      <path d="M316.848,611.058s14.119-.826,30.627.561c16.508,1.387,25.009,2.216,34.395-.802,0,0-4.034,14.619-6.365,22.461-2.331,7.843-3.826,15.593-3.826,19.509,0,0-36.533-7.176-54.831-41.729Z" fill="#575757"/>
      <path d="M706.046,611.058s-14.118-.826-30.626.561c-16.508,1.387-25.009,2.216-34.395-.802,0,0,4.035,14.619,6.366,22.461,2.331,7.843,3.825,15.593,3.825,19.509,0,0,36.532-7.176,54.83-41.729Z" fill="#575757"/>
      <g>
        <path d="M295.786,666.239l-1.972,13.41c3.387,4.731,7.068,9.117,11.11,13.195l5.96-7.947c-5.806-5.633-10.824-11.84-15.098-18.658Z" fill="#ff0"/>
        <path d="M312.191,699.512c7.19,5.978,15.462,11.185,25.112,15.752l4.119-9.316c-8.659-4.25-16.359-9.081-23.155-14.536l-6.076,8.101Z" fill="#ff0"/>
        <path d="M346.305,719.177c10.119,4.714,18.472,7.983,30.314,10.105l2.336-9.619c-10.727-2.31-19.263-5.398-28.589-9.674l-4.061,9.188Z" fill="#ff0"/>
      </g>
      <g>
        <path d="M711.985,684.897l5.959,7.947c4.043-4.078,7.723-8.464,11.109-13.195l-1.972-13.41c-4.273,6.818-9.292,13.025-15.097,18.658Z" fill="#ff0"/>
        <path d="M704.601,691.411c-6.796,5.455-14.497,10.286-23.156,14.536l4.119,9.316c9.65-4.567,17.922-9.774,25.112-15.752l-6.075-8.101Z" fill="#ff0"/>
        <path d="M672.502,709.989c-9.325,4.275-17.862,7.364-28.588,9.674l2.335,9.619c11.842-2.122,20.196-5.392,30.314-10.105l-4.061-9.188Z" fill="#ff0"/>
      </g>
      <path d="M202.906,45.767c-14.44,5.5-13.979,11.747-14.23,13.381-.654,4.242-1.306,10.057-1.575,11.831-.297,1.962-1.325,15.2-7.025.76-5.7-14.44-23.753-18.269-40.28-14.44-31.16,7.22-104.12,46.36-119.7,64.6-7.523,8.808-15.581,16.34-14.44,35.72,0,0-6.839,136.419,145.16,417.619,0,0,8.838,13.03,35.72,10.641,25.65-2.28,30.4-9.88,29.64-23.56-.76-13.68-18.854-111.405,3.04-231.8,3.041-16.72,6.08-9.121,9.12-3.8,0,0,6.84,10.64,10.26,14.06,3.42,3.42,5.457,10.41,22.041,3.04,0,0,97.648-52.493,250.8-52.493s250.837,52.493,250.837,52.493c16.584,7.371,18.619.38,22.039-3.04,3.42-3.42,10.261-14.06,10.261-14.06,3.041-5.321,6.08-12.92,9.12,3.8,21.894,120.395,3.8,218.12,3.04,231.8-.761,13.68,3.99,21.28,29.64,23.56,26.883,2.39,35.72-10.641,35.72-10.641,152-281.2,145.161-417.619,145.161-417.619,1.14-19.38-6.918-26.912-14.44-35.72-15.581-18.24-88.541-57.38-119.7-64.6-16.526-3.829-34.58,0-40.279,14.44-5.7,14.44-6.728,1.203-7.025-.76-.27-1.775-.922-7.589-1.574-11.831-.251-1.634.21-7.881-14.229-13.381,0,0-102.216-45.767-308.568-45.767S202.906,45.767,202.906,45.767Z" fill="#fff"/>
      <path d="M511.6,569.477h-1.5l-1.124.329c-1.364.398-33.774,10.071-67.46,37.189-31.22,25.132-69.323,70.562-73.553,144.253l-.013.234v.233c0,1.996.015,49.046,1.344,63.217,1.938,20.647,14.325,34.983,34.876,40.361,22.524,5.904,63.563,9.571,107.1,9.571h.328c43.534,0,84.574-3.667,107.103-9.571,20.549-5.379,32.935-19.713,34.875-40.361,1.327-14.171,1.343-61.221,1.343-63.217v-.233l-.014-.234c-4.228-73.691-42.331-119.121-73.552-144.253-33.686-27.119-66.096-36.791-67.459-37.189l-1.124-.329h-1.172Z" fill="#fff"/>
      <path d="M511.272,856.683c-45.166,0-84.735-3.985-105.028-9.303-20.294-5.312-27.492-19.266-28.802-33.212-1.309-13.952-1.309-62.452-1.309-62.452,7.853-136.852,135.139-174.057,135.139-174.057h.328s127.284,37.205,135.14,174.057c0,0,0,48.5-1.31,62.452-1.309,13.946-8.507,27.899-28.8,33.212-20.296,5.317-59.863,9.303-105.03,9.303h-.328Z" fill="#097b7d"/>
      <path d="M501.978,811.86v-97.76h-10.016v-15.123c6.326-.825,11.845-1.962,14.46-7.853h16.45v120.735h-20.894Z" fill="#fff"/>
      <g>
        <path d="M417.434,670.536c-1.491-1.134-3.158-1.423-5.132-.495-3.291,1.549-3.816,5.314-1.9,9.392,1.856,3.949,5.183,6.06,8.474,4.512,1.975-.928,2.737-2.319,2.984-4.809l4.73.455c-.046,3.812-1.81,6.9-5.791,8.77-5.736,2.696-11.656.12-14.911-6.808-3.14-6.677-1.308-13.201,4.428-15.899,4.138-1.944,7.589-1.118,10.309,1.088l-3.191,3.794Z" fill="#fff"/>
        <path d="M448.622,678.508l-3.275-4.7-8.547,2.359-.397,5.716-5.008,1.384,2.492-25.844,4.54-1.253,15.337,20.918-5.142,1.42ZM439.844,665.983c-.845-1.239-1.7-2.514-2.173-3.316.006.933-.074,2.463-.164,3.962l-.331,4.654,5.342-1.475-2.674-3.825Z" fill="#fff"/>
        <path d="M458.224,676.401l-3.886-23.934,4.787-.778,3.119,19.215,12.001-1.948.766,4.719-16.787,2.727Z" fill="#fff"/>
        <path d="M480.451,673.205l-2.346-24.132,4.827-.469,2.346,24.133-4.827.468Z" fill="#fff"/>
        <path d="M496.613,652.424l.176,4.567,7.304-.281.182,4.706-7.303.283.396,10.211-4.846.188-.938-24.228,17.34-.672.184,4.742-12.495.484Z" fill="#fff"/>
        <path d="M522.71,672.113c-6.613-.217-10.355-5.468-10.115-12.841.24-7.375,4.319-12.37,10.93-12.154,6.613.217,10.358,5.467,10.117,12.841-.24,7.373-4.319,12.37-10.932,12.154ZM523.369,651.93c-3.912-.126-5.649,3.178-5.789,7.505-.143,4.327,1.376,7.738,5.285,7.865,3.912.128,5.649-3.177,5.792-7.504.14-4.328-1.377-7.739-5.288-7.866Z" fill="#fff"/>
        <path d="M550.678,673.913l-3.338-9.154-4.854-.54-.967,8.675-4.82-.536,2.683-24.099,11.222,1.25c4.545.506,8.019,3.437,7.446,8.564-.403,3.615-2.202,5.715-5.401,6.579l3.571,9.877-5.542-.616ZM549.98,654.179l-6.299-.701-.692,6.197,6.304.701c2.235.248,3.556-.649,3.789-2.75.24-2.169-.969-3.21-3.102-3.447Z" fill="#fff"/>
        <path d="M576.002,678.491l-5.938-14.803c-.388-1.002-.913-2.353-1.087-3.03-.189.882-.759,3.875-1.042,5.197l-2.231,10.434-4.673-1.001,5.069-23.71,4.54.971,5.721,14.329c.385,1.003.912,2.356,1.086,3.03.19-.88.76-3.875,1.04-5.195l2.145-10.028,4.676,1.001-5.07,23.709-4.235-.903Z" fill="#fff"/>
        <path d="M586.303,681.326l7.339-23.11,4.62,1.469-7.337,23.108-4.622-1.467Z" fill="#fff"/>
        <path d="M611.717,691.642l.643-5.694-7.978-3.868-4.072,4.031-4.676-2.266,18.933-17.767,4.239,2.054-2.289,25.837-4.8-2.327ZM613.39,676.437c.183-1.487.381-3.009.555-3.925-.61.706-1.679,1.804-2.736,2.867l-3.322,3.28,4.987,2.418.517-4.641Z" fill="#fff"/>
      </g>
      <path d="M221.705,201.087c-1.368-11.796-2.737-23.591-4.107-35.387,25.148-9.865,50.535-18.652,76.399-26.447,3.084,35.542,6.17,71.086,9.254,106.628-24.48,7.404-48.502,15.705-72.335,24.984-7.418-7.414-11.916-16.212-12.968-26.188-1.257-11.922,2.34-22.557,6.018-33.903,13.845-5.533,27.84-10.689,41.965-15.46-1.45-14.6-2.898-29.199-4.345-43.799-19.45,10.711-30.345,30.411-39.881,49.572ZM271.698,253.462c-1.858-18.757-3.724-37.514-5.581-56.271-10.822,8.307-17.729,21.278-16.509,34.925,1.066,11.92,10.086,20.552,22.09,21.346ZM407.778,131.069c4.267-7.312,6.416-10.953,10.746-18.209,10.949-1.462,16.434-2.104,27.415-3.204,8.148,8.499,13.291,17.126,15.409,25.656,2.165,8.718,3.312,17.2,3.507,25.344.444,18.425.878,36.851,1.325,55.276-10.994.865-21.969,1.958-32.918,3.276-.637-17.408-1.272-34.815-1.907-52.223-.498-13.62-2.692-23.112-6.619-28.408-3.926-5.293-8.678-7.564-14.195-6.768-1.051.151-2.648.424-2.706.542-.68,1.409,4.065,14.436,4.549,25.589.921,21.219,1.843,42.437,2.765,63.655-10.749,1.543-21.467,3.299-32.145,5.278-.922-16.507-1.842-33.014-2.763-49.52-.504-11.103-.604-24.28-5.404-33.16-2.049-3.791-6.673-5.448-11.922-4.377-1.034.211-2.203.599-3.49,1.152,1.87,29.813,3.738,59.628,5.61,89.441-10.663,2.225-21.279,4.667-31.843,7.324-2.68-35.654-5.355-71.308-8.03-106.962,10.996-2.765,22.047-5.308,33.146-7.623.414,6.617.622,9.925,1.037,16.542,4.59-7.662,6.905-11.476,11.568-19.072,10.93-2.106,16.408-3.068,27.387-4.808,3.178,4.164,6.34,9.253,9.478,15.258ZM566.434,214.352c-12.984-.489-25.924-.771-38.917-.851.011,18.072.022,36.144.037,54.216-10.788.025-21.576.273-32.353.739-.718-54.059-1.431-108.119-2.147-162.178,25.007-.879,49.891-.845,74.896.099,9.72,16.502,15.154,36.108,14.155,54.592-1.042,19.299-6.585,35.602-15.672,53.383ZM527.441,107.825c.026,34.429.047,68.858.073,103.288,13.69-13.825,20.757-32.515,20.896-51.781.138-19.239-7.059-37.949-20.969-51.507ZM643.306,113.27c-1.494,35.883-2.986,71.766-4.477,107.649-10.931-1.5-21.893-2.775-32.876-3.825,1.048-35.935,2.092-71.871,3.136-107.807,11.432,1.093,22.842,2.42,34.218,3.982ZM708.589,128.337c-2.275,34.596-4.552,69.191-6.829,103.787-10.808-2.372-21.666-4.517-32.562-6.442,1.904-35.818,3.812-71.636,5.723-107.454,22.738,4.19,45.216,9.122,67.62,14.837-6.935,10.213-13.811,20.46-20.636,30.748-3.69-12.029-7.66-24.2-13.315-35.476ZM819.967,214.554c-12.92-4.891-25.961-9.461-39.11-13.695-.215,11.004,1.043,21.081,3.715,30.25,2.672,9.169,9.863,25.382,12.295,25.897,3.533.75,17.14-16.022,21.384-26.875,6.852,11.192,13.617,22.424,20.309,33.712-1.936,3.04-4.073,5.954-6.425,8.735-24.214-9.581-48.627-18.149-73.52-25.791-7.637-18.28-11.369-38.154-9.743-57.951.925-11.25,2.901-20.273,5.833-27.001,2.999-6.883,7.403-14.162,13.291-21.64,24.407,7.479,48.378,15.816,72.161,25.088-.073,1.427-.204,3.027-.406,4.784-1.897,16.476-9.033,31.911-19.782,44.487ZM781.637,197.361c11.431-7.582,27.672-26.261,23.894-42.392-12.357,7.681-24.353,24.226-23.894,42.392"/>
      <path d="M32.635,174.72s23.561-36.481,68.022-36.481c8.36,93.101,24.188,188.47,48.852,261.238,0,0-5.12-165.478,1.178-269.107,0,0,150.095-70.831,360.75-70.831,238.26,0,391.6,69.761,450.88,82.301,0,0-61,.58-82.66,1.72-21.66,1.14-161.88-63.638-368.22-63.638-165.207,0-279.124,51-322.62,67.139-12.54,123.038-22.309,263.259-22.309,359.018-64.331-142.5-81.811-204.44-102.98-344.28,0,0-8.472-1.9-30.893,12.92Z"/>
      <path d="M918.494,161.33s18.534,29.621,20.44,33.085c0,0,21.132-33.605,22.172-36.376l-84.357,3.118s-37.006,57.612,5.417,106.663c36.48,42.18,17.859,83.6-6.081,146.775,0,0-3.99-76.095-11.684-93.765,0,0-7.125,14.535-12.255,21.945-5.131,7.41-11.686,16.245-9.976,28.215,1.71,11.97,9.516,33.073,11.115,79.8,1.425,41.61,2.376,50.464,3.23,55.594,0,0,61.749-112.024,72.01-156.104,4.379-18.815,24.48-67.045-6.08-96.9-49.399-48.26-3.951-92.049-3.951-92.049Z"/>
      <g>
        <rect x="864.879" y="768.481" width="144" height="108"/>
        <path d="M1008.879,768.481v108h-144v-108h144M1009.879,767.481h-146v110h146v-110h0Z" fill="#fff"/>
      </g>
      <g>
        <path d="M896.05,796.971c3.557,5.364,6.332,9.52,8.324,12.467,1.991,2.947,3.438,5.086,4.341,6.412,1.062,1.594,1.699,2.524,1.912,2.788l14.657-21.667h10.356v53.372h-11.152v-32.82l-13.861,19.119-13.781-18.88v32.581h-11.231v-53.372h10.436Z" fill="#fff"/>
        <path d="M947.47,831.225c-.506-2.655-.757-5.39-.757-8.205s.278-5.536.836-8.165c.558-2.629,1.486-5.071,2.788-7.329,1.301-2.257,3-4.274,5.099-6.054,2.098-1.779,4.686-3.253,7.767-4.422.159-.159.331-.238.518-.238s.331-.053.438-.159c1.38-.266,2.694-.451,3.943-.558,1.247-.106,2.562-.16,3.943-.16,1.326,0,2.362.014,3.106.04.743.027,1.434.108,2.071.239.637.133,1.353.346,2.15.638s1.912.73,3.346,1.313c.159.107.465.293.916.558.451.267.916.546,1.395.837.477.292.902.558,1.274.797.371.238.584.358.638.358.424.426,1.101.995,2.031,1.713.928.717,1.605,1.393,2.031,2.031v.318c0,.267-.358.797-1.076,1.593-.717.797-1.513,1.621-2.39,2.47-.876.851-2.005,1.966-3.385,3.346h-.16c-1.7-1.858-3.465-3.372-5.297-4.541-1.832-1.167-4.051-1.752-6.651-1.752-3.081,0-5.524.69-7.329,2.071-1.806,1.382-3.293,3.479-4.461,6.293-.318.744-.585,1.554-.797,2.43-.213.876-.318,1.74-.318,2.589v7.966c0,.267.04.598.119.996.08.398.159.836.239,1.315.08.477.172.93.279,1.353.105.426.211.745.318.956.902,2.922,2.376,5.206,4.421,6.852,2.044,1.647,4.606,2.469,7.687,2.469,2.654,0,5.005-.623,7.05-1.872,2.044-1.247,3.995-2.748,5.854-4.501.106,0,.491.387,1.155,1.155.664.771,1.381,1.621,2.151,2.55.769.93,1.46,1.819,2.07,2.668.61.85.917,1.354.917,1.514s-.187.426-.558.797c-.373.372-.784.744-1.235,1.115-.451.372-.903.73-1.354,1.075-.451.346-.756.571-.916.677-.85.478-1.566.891-2.15,1.235-.585.346-1.223.731-1.912,1.155-.054,0-.093.027-.119.079-.027.054-.067.08-.119.08-1.807.85-3.652,1.434-5.537,1.752-1.886.319-3.811.479-5.775.479-1.752,0-3.505-.134-5.257-.399-1.753-.267-3.466-.689-5.139-1.274-1.673-.584-3.254-1.367-4.739-2.351-1.487-.981-2.788-2.163-3.903-3.545-.107-.159-.307-.477-.598-.955-.293-.478-.611-.982-.956-1.514-.346-.53-.757-1.195-1.234-1.992-1.115-2.601-1.926-5.23-2.43-7.886Z" fill="#fff"/>
      </g>
    </g>
  </g>
</svg>