<svg width="4200" height="3800" viewBox="0 0 4200 3800" fill="none" xmlns="http://www.w3.org/2000/svg">
<g filter="url(#filter0_d_141_60)">
<path d="M711.272 2403.94C695.56 2408.82 687.11 2409.34 674.256 2420.67C663.229 2430.39 653.289 2467.21 669.145 2476.14C674.859 2479.36 681.283 2472.24 687.837 2472.25C694.321 2472.26 706.842 2465.79 711.601 2468.54C720.02 2473.44 716.493 2492.13 731.36 2494.5C744.577 2496.61 753.614 2479.95 767.019 2480C772.369 2480.01 780.537 2481.28 784.855 2485.59C792.683 2493.42 822.031 2495.69 830.352 2487.37C843.042 2474.68 846.96 2473.47 846.96 2473.47C846.96 2473.47 862.867 2490.02 894.072 2485.13C905.671 2483.31 921.402 2481.06 925.031 2468.85C928.414 2457.47 925.93 2452.5 937.541 2450.5C969.86 2444.94 965.324 2411.93 965.324 2411.93C965.324 2411.93 978.44 2406.88 978.803 2395.33C979.085 2386.46 970.286 2373.82 960.944 2373.82C914.137 2373.82 724.982 2399.69 711.272 2403.94Z" fill="black"/>
<path d="M3488.58 2403.94C3504.3 2408.82 3512.75 2409.34 3525.6 2420.67C3536.62 2430.39 3546.56 2467.21 3530.71 2476.14C3525 2479.36 3518.57 2472.24 3512.02 2472.25C3505.54 2472.26 3493.01 2465.79 3488.26 2468.54C3479.84 2473.44 3483.37 2492.13 3468.5 2494.5C3455.28 2496.61 3446.24 2479.95 3432.84 2480C3427.49 2480.01 3419.32 2481.28 3415.01 2485.59C3407.18 2493.42 3377.83 2495.69 3369.5 2487.37C3356.82 2474.68 3352.9 2473.47 3352.9 2473.47C3352.9 2473.47 3337 2490.02 3305.79 2485.13C3294.19 2483.31 3278.46 2481.06 3274.83 2468.85C3271.45 2457.47 3273.94 2452.5 3262.32 2450.5C3230 2444.94 3234.54 2411.93 3234.54 2411.93C3234.54 2411.93 3221.43 2406.88 3221.07 2395.33C3220.78 2386.46 3229.58 2373.82 3238.92 2373.82C3285.73 2373.82 3474.88 2399.69 3488.59 2403.94H3488.58Z" fill="black"/>
<path d="M990.045 2618.98L802.881 2638C793.793 2638.92 785.777 2644.36 781.558 2652.46C777.342 2660.57 777.487 2670.25 781.949 2678.23C783.263 2680.57 814.82 2736.53 879.185 2813.76C905.162 2845.4 950.378 2890.53 994.253 2928.57C1069.27 2993.61 1111.85 3016.31 1111.85 3016.31C1111.85 3016.31 1068.45 2931.66 1044.87 2835.83C1022.17 2743.57 1019.28 2640.02 1019 2638.98C1015.57 2626.11 1003.3 2617.63 990.041 2618.98L990.045 2618.98Z" fill="white"/>
<path d="M3209.82 2618.98L3396.98 2638C3406.07 2638.92 3414.08 2644.36 3418.3 2652.46C3422.51 2660.57 3422.37 2670.25 3417.91 2678.23C3416.59 2680.57 3385.04 2736.53 3320.67 2813.76C3294.69 2845.4 3249.48 2890.53 3205.6 2928.57C3130.58 2993.61 3088.01 3016.31 3088.01 3016.31C3088.01 3016.31 3131.41 2931.66 3154.99 2835.83C3177.69 2743.57 3180.58 2640.02 3180.86 2638.98C3184.29 2626.11 3196.56 2617.63 3209.81 2618.98L3209.82 2618.98Z" fill="white"/>
<path d="M2100.07 3317.25C2452.65 3311.43 2633.62 3276.13 2724.38 3248.82C2892.89 3198.1 3019.73 3079.92 3000.45 2848.5C2999.93 2842.09 2997.37 2832.73 2998.55 2828.57C3001.28 2819.17 3030.97 2808.02 3045.99 2802.96C3098.17 2785.45 3182.21 2786.68 3245.21 2791.58C3337.16 2798.73 3415.86 2812.33 3501.37 2824.78C3642.48 2845.29 3818.51 2862.65 3964.33 2833.32C3982.95 2829.56 4008.61 2826.8 4022.21 2819.09C4029.04 2815.22 4033.21 2800.43 4027.36 2787.79C4023.04 2778.41 3987.82 2780.04 3971.92 2778.29C3907.22 2771.14 3848.08 2754.79 3800.2 2733.71C3698.96 2689.12 3654.11 2610.37 3654.11 2591.42C3654.11 2579.17 3740.57 2512.31 3851.44 2469.99C3906.33 2449.04 3970.23 2430.94 4036.44 2415.92C4057.27 2411.18 4088.23 2409.36 4097.15 2397.9C4100.09 2394.18 4101.31 2382.6 4098.11 2374.18C4094.83 2365.53 4065.02 2359.95 4049.72 2356.16C3921.17 2324.26 3782.26 2295.29 3647.47 2273.63C3484.37 2247.43 3318.26 2227.7 3133.27 2232.84C2956.06 2237.78 2789.76 2263.28 2680.74 2335.29C2653.18 2353.48 2626.58 2373.75 2603.81 2399.39C2582.1 2423.83 2565.83 2455.92 2565.18 2495.97C2563.47 2600.99 2599.35 2631.18 2612.42 2728.97C2426.98 2784.21 2181.65 2788.76 2100.07 2788.01H2099.93C2018.34 2788.76 1773.02 2784.21 1587.57 2728.97C1600.64 2631.17 1636.53 2600.99 1634.82 2495.97C1634.17 2455.92 1617.89 2423.83 1596.19 2399.39C1573.42 2373.75 1546.81 2353.48 1519.26 2335.29C1410.24 2263.28 1243.94 2237.78 1066.73 2232.84C881.735 2227.7 715.632 2247.43 552.529 2273.63C417.733 2295.29 278.832 2324.26 150.281 2356.16C134.979 2359.95 105.17 2365.53 101.893 2374.18C98.6906 2382.6 99.9185 2394.18 102.847 2397.9C111.779 2409.36 142.73 2411.18 163.56 2415.92C229.772 2430.94 293.664 2449.04 348.558 2469.99C459.43 2512.31 545.893 2579.17 545.893 2591.42C545.893 2610.37 501.037 2689.12 399.792 2733.71C351.913 2754.8 292.78 2771.14 228.074 2778.29C212.182 2780.03 176.95 2778.41 172.64 2787.79C166.79 2800.43 170.959 2815.22 177.79 2819.09C191.387 2826.8 217.051 2829.56 235.665 2833.32C381.484 2862.65 557.515 2845.3 698.63 2824.78C784.135 2812.33 862.836 2798.73 954.785 2791.58C1017.79 2786.68 1101.83 2785.45 1154.01 2802.96C1169.03 2808.02 1198.72 2819.17 1201.45 2828.57C1202.63 2832.73 1200.06 2842.09 1199.55 2848.5C1180.26 3079.92 1307.11 3198.1 1475.62 3248.82C1566.38 3276.13 1747.35 3311.43 2099.93 3317.25H2100.07H2100.07Z" fill="white"/>
<path d="M1203.12 2785.6C1203.12 2785.6 1238.07 2634.15 1280.32 2554.03C1293.42 2529.19 1304.44 2518.65 1335 2517.05C1365.56 2515.44 1399.33 2512.23 1455.62 2518.66C1511.91 2525.09 1547.28 2526.7 1569.8 2521.87C1592.32 2517.05 1619.65 2509.01 1579.45 2443.08C1539.24 2377.15 1407.37 2293.53 1170.96 2277.45C934.546 2261.37 627.645 2271.91 174.123 2386.08C174.123 2386.08 322.715 2389.65 501.033 2510.01C551.134 2543.82 580.012 2568.99 581.717 2601.69C583.246 2630.99 496.572 2776.79 275.164 2804.9C275.164 2804.9 493.889 2824.2 772.111 2774.35C1050.34 2724.5 1156.48 2755.05 1203.12 2785.6L1203.12 2785.6Z" fill="#A1A1A1"/>
<path d="M2100.01 2824.25C2299.12 2824.25 2431.24 2811.69 2613.66 2768.65C2745.9 2737.45 2825.16 2683.18 2889.38 2580.99C2889.38 2580.99 3102.95 2983.45 2834.88 3159.44C2757.58 3210.18 2539.86 3276.67 2100.01 3276.67H2099.93C1660.08 3276.67 1442.35 3210.18 1365.06 3159.44C1096.98 2983.45 1310.55 2580.99 1310.55 2580.99C1374.78 2683.18 1454.03 2737.45 1586.28 2768.65C1768.69 2811.69 1900.81 2824.25 2099.93 2824.25H2100.01H2100.01Z" fill="#A1A1A1"/>
<path d="M2996.81 2785.6C2996.81 2785.6 2961.86 2634.15 2919.61 2554.03C2906.51 2529.19 2895.49 2518.65 2864.94 2517.05C2834.38 2515.44 2800.61 2512.23 2744.31 2518.66C2688.03 2525.09 2652.65 2526.7 2630.13 2521.87C2607.62 2517.05 2580.28 2509.01 2620.48 2443.08C2660.68 2377.15 2792.56 2293.53 3028.97 2277.45C3265.39 2261.37 3572.28 2271.91 4025.81 2386.08C4025.81 2386.08 3877.22 2389.65 3698.9 2510.01C3648.8 2543.82 3619.92 2568.99 3618.21 2601.69C3616.68 2630.99 3703.36 2776.79 3924.76 2804.9C3924.76 2804.9 3706.03 2824.2 3427.81 2774.35C3149.59 2724.5 3043.44 2755.05 2996.81 2785.6L2996.81 2785.6Z" fill="#A1A1A1"/>
<path d="M570.736 2544.87L591.712 2576.64C623.406 2574.27 656.711 2570.06 689.058 2565.42L685.581 2530.19C646.403 2536.24 603.517 2542.42 570.736 2544.87ZM740.882 2521.52C735.416 2522.37 729.597 2523.28 723.559 2524.23L727.063 2559.74C733.582 2558.74 740.018 2557.74 746.341 2556.76C777.425 2551.95 806.945 2547.37 832.581 2544.42L829.523 2508.88C802.952 2511.91 772.729 2516.59 740.878 2521.53L740.882 2521.52ZM1167.11 2511.82L1162.71 2547.3C1226.9 2557.86 1257.77 2571.44 1258.37 2571.72L1273.63 2543.03C1269.23 2538.64 1234.77 2523.13 1167.11 2511.82ZM870.786 2540.68C910.043 2537.3 946.054 2535.62 979.065 2535.16L980.579 2499.36C946.171 2499.84 908.623 2501.62 867.732 2505.15L870.79 2540.68H870.786ZM1017.48 2535.18C1058.7 2535.82 1094.37 2538.43 1124.7 2541.97L1129.11 2506.4C1097.76 2502.68 1061.13 2500.02 1018.99 2499.39L1017.48 2535.18Z" fill="#FFFF00"/>
<path d="M3514.14 2530.19L3510.66 2565.42C3543.01 2570.06 3576.31 2574.27 3608.01 2576.64L3628.98 2544.87C3596.21 2542.42 3553.31 2536.24 3514.14 2530.19ZM3370.19 2508.88L3367.13 2544.42C3392.77 2547.37 3422.29 2551.95 3453.37 2556.76C3459.7 2557.74 3466.14 2558.74 3472.66 2559.74L3476.16 2524.23C3470.12 2523.28 3464.3 2522.37 3458.84 2521.52C3426.99 2516.58 3396.76 2511.92 3370.19 2508.88ZM2926.09 2543.03L2941.35 2571.72C2941.95 2571.44 2972.82 2557.86 3037.01 2547.3L3032.61 2511.82C2964.95 2523.13 2930.49 2538.64 2926.09 2543.03ZM3331.99 2505.15C3291.1 2501.62 3253.55 2499.84 3219.15 2499.36L3220.66 2535.16C3253.67 2535.62 3289.68 2537.3 3328.94 2540.68L3331.99 2505.15ZM3180.73 2499.39C3138.59 2500.02 3101.96 2502.68 3070.61 2506.4L3075.02 2541.97C3105.35 2538.42 3141.01 2535.82 3182.24 2535.17L3180.73 2499.38V2499.39Z" fill="#FFFF00"/>
<path d="M1339 2557.27C1339 2557.27 1394.21 2554.04 1458.77 2559.46C1523.32 2564.89 1556.56 2568.13 1593.26 2556.33C1593.26 2556.33 1577.49 2613.49 1568.38 2644.15C1559.26 2674.82 1553.41 2705.12 1553.41 2720.43C1553.41 2720.43 1410.55 2692.37 1339 2557.27Z" fill="#575757"/>
<path d="M2860.93 2557.27C2860.93 2557.27 2805.72 2554.04 2741.17 2559.46C2676.61 2564.89 2643.37 2568.13 2606.67 2556.33C2606.67 2556.33 2622.45 2613.49 2631.56 2644.15C2640.68 2674.82 2646.52 2705.12 2646.52 2720.43C2646.52 2720.43 2789.37 2692.37 2860.93 2557.27Z" fill="#575757"/>
<path d="M1256.64 2773.03L1248.93 2825.47C1262.17 2843.96 1276.57 2861.11 1292.37 2877.06L1315.68 2845.99C1292.98 2823.96 1273.35 2799.69 1256.64 2773.03Z" fill="#FFFF00"/>
<path d="M1320.79 2903.13C1348.91 2926.51 1381.26 2946.86 1418.99 2964.72L1435.1 2928.3C1401.24 2911.68 1371.13 2892.79 1344.55 2871.46L1320.79 2903.13Z" fill="#FFFF00"/>
<path d="M1454.19 2980.02C1493.76 2998.45 1526.42 3011.24 1572.73 3019.53L1581.87 2981.92C1539.92 2972.89 1506.54 2960.82 1470.07 2944.1L1454.19 2980.02Z" fill="#FFFF00"/>
<path d="M2884.15 2845.99L2907.45 2877.06C2923.26 2861.11 2937.65 2843.96 2950.89 2825.47L2943.18 2773.03C2926.47 2799.69 2906.85 2823.96 2884.15 2845.99Z" fill="#FFFF00"/>
<path d="M2855.28 2871.46C2828.7 2892.78 2798.59 2911.67 2764.73 2928.29L2780.84 2964.72C2818.57 2946.86 2850.92 2926.5 2879.03 2903.13L2855.28 2871.45V2871.46Z" fill="#FFFF00"/>
<path d="M2729.76 2944.1C2693.29 2960.81 2659.91 2972.89 2617.96 2981.92L2627.1 3019.53C2673.4 3011.24 2706.07 2998.45 2745.64 2980.02L2729.76 2944.1Z" fill="#FFFF00"/>
<path d="M893.443 346.952C836.977 368.457 838.779 392.883 837.798 399.272C835.24 415.858 832.691 438.595 831.639 445.532C830.477 453.203 826.458 504.965 804.168 448.503C781.879 392.042 711.284 377.071 646.657 392.042C524.808 420.273 239.505 573.312 178.58 644.632C149.162 679.072 117.652 708.522 122.114 784.299C122.114 784.299 95.3708 1317.7 689.749 2417.21C689.749 2417.21 724.31 2468.16 829.429 2458.82C929.731 2449.9 948.306 2420.19 945.334 2366.7C942.362 2313.21 871.607 1931.1 957.222 1460.35C969.113 1394.97 980.997 1424.68 992.885 1445.49C992.885 1445.49 1019.63 1487.09 1033.01 1500.46C1046.38 1513.84 1054.34 1541.17 1119.19 1512.35C1119.19 1512.35 1501.04 1307.1 2099.93 1307.1C2698.81 1307.1 3080.8 1512.35 3080.8 1512.35C3145.65 1541.17 3153.61 1513.84 3166.98 1500.46C3180.36 1487.09 3207.11 1445.49 3207.11 1445.49C3219 1424.68 3230.88 1394.97 3242.77 1460.35C3328.39 1931.1 3257.63 2313.21 3254.66 2366.7C3251.68 2420.19 3270.26 2449.9 3370.56 2458.82C3475.69 2468.16 3510.24 2417.21 3510.24 2417.21C4104.63 1317.7 4077.88 784.299 4077.88 784.299C4082.34 708.522 4050.83 679.072 4021.42 644.632C3960.49 573.312 3675.18 420.273 3553.34 392.042C3488.72 377.071 3418.12 392.042 3395.83 448.503C3373.54 504.965 3369.52 453.207 3368.36 445.532C3367.31 438.591 3364.76 415.858 3362.21 399.272C3361.23 392.883 3363.03 368.457 3306.57 346.952C3306.57 346.952 2906.86 168 2099.94 168C1293.02 168 893.443 346.952 893.443 346.952Z" fill="white"/>
<path d="M2100.56 2394.69H2094.7L2090.3 2395.97C2084.97 2397.53 1958.23 2435.35 1826.51 2541.38C1704.42 2639.65 1555.42 2817.29 1538.88 3105.42L1538.83 3106.34V3107.25C1538.83 3115.05 1538.89 3299.02 1544.09 3354.43C1551.67 3435.16 1600.1 3491.22 1680.47 3512.24C1768.55 3535.33 1929.02 3549.67 2099.27 3549.67H2100.55C2270.79 3549.67 2431.27 3535.33 2519.37 3512.24C2599.73 3491.21 2648.16 3435.16 2655.75 3354.43C2660.94 3299.02 2661 3115.05 2661 3107.25V3106.34L2660.94 3105.42C2644.41 2817.29 2495.41 2639.65 2373.33 2541.38C2241.6 2435.35 2114.86 2397.53 2109.53 2395.97L2105.14 2394.69H2100.55H2100.56Z" fill="white"/>
<path d="M2099.28 3517.68C1922.66 3517.68 1767.93 3502.1 1688.58 3481.3C1609.22 3460.53 1581.07 3405.97 1575.95 3351.44C1570.83 3296.89 1570.83 3107.25 1570.83 3107.25C1601.54 2572.15 2099.28 2426.68 2099.28 2426.68H2100.56C2100.56 2426.68 2598.3 2572.15 2629.02 3107.25C2629.02 3107.25 2629.02 3296.89 2623.89 3351.44C2618.78 3405.97 2590.63 3460.53 2511.27 3481.3C2431.91 3502.09 2277.19 3517.68 2100.56 3517.68H2099.28Z" fill="#097B7D"/>
<path d="M2062.94 3342.42V2960.17H2023.77V2901.04C2048.51 2897.81 2070.09 2893.37 2080.32 2870.33H2144.64V3342.41L2062.94 3342.42Z" fill="white"/>
<path d="M1732.34 2789.83C1726.51 2785.4 1719.99 2784.27 1712.27 2787.9C1699.4 2793.95 1697.35 2808.68 1704.84 2824.62C1712.1 2840.06 1725.11 2848.32 1737.98 2842.26C1745.7 2838.63 1748.68 2833.2 1749.64 2823.46L1768.14 2825.24C1767.96 2840.14 1761.06 2852.22 1745.5 2859.53C1723.06 2870.07 1699.92 2860 1687.19 2832.91C1674.91 2806.8 1682.07 2781.29 1704.5 2770.74C1720.68 2763.14 1734.18 2766.37 1744.81 2775L1732.34 2789.83Z" fill="white"/>
<path d="M1854.29 2821L1841.49 2802.63L1808.07 2811.85L1806.51 2834.2L1786.93 2839.61L1796.67 2738.56L1814.43 2733.66L1874.4 2815.45L1854.29 2821ZM1819.97 2772.03C1816.66 2767.19 1813.32 2762.2 1811.47 2759.06C1811.49 2762.71 1811.18 2768.7 1810.83 2774.56L1809.54 2792.75L1830.43 2786.99L1819.97 2772.03Z" fill="white"/>
<path d="M1891.84 2812.77L1876.65 2719.18L1895.37 2716.14L1907.56 2791.27L1954.49 2783.66L1957.49 2802.11L1891.84 2812.77Z" fill="white"/>
<path d="M1978.76 2800.27L1969.58 2705.91L1988.46 2704.08L1997.63 2798.44L1978.76 2800.27Z" fill="white"/>
<path d="M2041.96 2719.01L2042.65 2736.87L2071.21 2735.77L2071.92 2754.17L2043.36 2755.28L2044.91 2795.21L2025.96 2795.94L2022.29 2701.21L2090.1 2698.58L2090.82 2717.12L2041.96 2719.01Z" fill="white"/>
<path d="M2144.01 2796C2118.15 2795.15 2103.52 2774.62 2104.45 2745.79C2105.39 2716.95 2121.34 2697.42 2147.2 2698.27C2173.06 2699.12 2187.7 2719.64 2186.76 2748.48C2185.82 2777.31 2169.87 2796.84 2144.01 2796ZM2146.59 2717.08C2131.29 2716.59 2124.5 2729.51 2123.95 2746.43C2123.39 2763.35 2129.33 2776.68 2144.61 2777.18C2159.91 2777.68 2166.7 2764.76 2167.26 2747.84C2167.81 2730.92 2161.88 2717.58 2146.59 2717.08Z" fill="white"/>
<path d="M2253.37 2803.04L2240.32 2767.24L2221.34 2765.13L2217.56 2799.05L2198.71 2796.96L2209.2 2702.73L2253.09 2707.62C2270.86 2709.6 2284.44 2721.06 2282.2 2741.1C2280.63 2755.24 2273.59 2763.45 2261.08 2766.83L2275.05 2805.45L2253.37 2803.04ZM2250.65 2725.88L2226.01 2723.14L2223.31 2747.37L2247.96 2750.11C2256.7 2751.08 2261.86 2747.57 2262.78 2739.35C2263.71 2730.87 2258.99 2726.8 2250.65 2725.88Z" fill="white"/>
<path d="M2352.4 2820.94L2329.18 2763.06C2327.66 2759.14 2325.61 2753.86 2324.93 2751.21C2324.19 2754.66 2321.96 2766.36 2320.86 2771.53L2312.13 2812.33L2293.86 2808.41L2313.68 2715.71L2331.43 2719.5L2353.81 2775.53C2355.31 2779.45 2357.37 2784.74 2358.05 2787.38C2358.8 2783.94 2361.02 2772.23 2362.12 2767.07L2370.51 2727.86L2388.79 2731.77L2368.97 2824.47L2352.41 2820.94L2352.4 2820.94Z" fill="white"/>
<path d="M2392.68 2832.02L2421.38 2741.66L2439.45 2747.41L2410.76 2837.76L2392.68 2832.02Z" fill="white"/>
<path d="M2492.06 2872.36L2494.58 2850.09L2463.38 2834.97L2447.46 2850.73L2429.17 2841.87L2503.21 2772.4L2519.78 2780.43L2510.83 2881.46L2492.06 2872.36ZM2498.61 2812.91C2499.32 2807.09 2500.1 2801.14 2500.78 2797.56C2498.39 2800.32 2494.21 2804.61 2490.08 2808.77L2477.09 2821.59L2496.59 2831.05L2498.61 2812.9L2498.61 2812.91Z" fill="white"/>
<path d="M966.955 954.261C961.605 908.138 956.252 862.019 950.895 815.896C1049.23 777.323 1148.51 742.966 1249.65 712.487C1261.71 851.458 1273.77 990.437 1285.83 1129.41C1190.11 1158.36 1096.17 1190.82 1002.97 1227.1C973.966 1198.11 956.377 1163.71 952.263 1124.7C947.348 1078.09 961.414 1036.5 975.796 992.138C1029.94 970.504 1084.66 950.343 1139.9 931.689C1134.23 874.602 1128.56 817.519 1122.91 760.432C1046.85 802.313 1004.24 879.341 966.955 954.261ZM1162.45 1159.05C1155.18 1085.71 1147.89 1012.37 1140.62 939.028C1098.31 971.509 1071.3 1022.23 1076.07 1075.59C1080.24 1122.19 1115.51 1155.95 1162.45 1159.05ZM1694.58 680.487C1711.26 651.897 1719.67 637.66 1736.6 609.289C1779.41 603.572 1800.86 601.062 1843.8 596.761C1875.66 629.993 1895.78 663.725 1904.06 697.077C1912.52 731.165 1917.01 764.33 1917.77 796.174C1919.51 868.217 1921.2 940.263 1922.95 1012.31C1879.96 1015.69 1837.04 1019.96 1794.23 1025.12C1791.74 957.049 1789.26 888.987 1786.77 820.921C1784.83 767.666 1776.25 730.551 1760.89 709.844C1745.54 689.148 1726.95 680.268 1705.38 683.381C1701.27 683.971 1695.03 685.038 1694.8 685.5C1692.14 691.009 1710.7 741.945 1712.59 785.554C1716.19 868.522 1719.79 951.485 1723.4 1034.45C1681.37 1040.48 1639.46 1047.35 1597.7 1055.09C1594.09 990.543 1590.5 925.999 1586.9 861.46C1584.92 818.047 1584.53 766.524 1565.76 731.803C1557.75 716.98 1539.67 710.501 1519.14 714.688C1515.1 715.513 1510.53 717.03 1505.5 719.193C1512.81 835.763 1520.11 952.341 1527.43 1068.91C1485.74 1077.61 1444.22 1087.16 1402.91 1097.55C1392.43 958.14 1381.97 818.731 1371.51 679.322C1414.51 668.511 1457.73 658.567 1501.13 649.515C1502.75 675.388 1503.56 688.323 1505.18 714.196C1523.13 684.237 1532.19 669.324 1550.42 639.623C1593.16 631.388 1614.58 627.627 1657.51 620.823C1669.94 637.105 1682.31 657.003 1694.58 680.483V680.487ZM2314.99 1006.13C2264.21 1004.22 2213.61 1003.11 2162.81 1002.8C2162.85 1073.46 2162.89 1144.13 2162.95 1214.79C2120.76 1214.89 2078.58 1215.86 2036.44 1217.68C2033.63 1006.3 2030.84 794.927 2028.04 583.553C2125.83 580.116 2223.14 580.249 2320.92 583.94C2358.92 648.464 2380.17 725.124 2376.27 797.398C2372.19 872.858 2350.52 936.604 2314.98 1006.13H2314.99ZM2162.51 589.602C2162.61 724.221 2162.69 858.84 2162.79 993.464C2216.33 939.407 2243.96 866.328 2244.51 790.997C2245.05 715.771 2216.9 642.614 2162.51 589.602ZM2615.59 610.892C2609.75 751.196 2603.91 891.501 2598.08 1031.81C2555.34 1025.94 2512.47 1020.96 2469.52 1016.85C2473.62 876.342 2477.7 735.83 2481.79 595.318C2526.49 599.592 2571.11 604.781 2615.59 610.888L2615.59 610.892ZM2870.87 669.805C2861.98 805.077 2853.07 940.345 2844.17 1075.62C2801.9 1066.34 2759.44 1057.96 2716.84 1050.43C2724.28 910.379 2731.74 770.328 2739.22 630.278C2828.13 646.661 2916.03 665.946 3003.64 688.292C2976.52 728.225 2949.63 768.291 2922.94 808.518C2908.51 761.484 2892.99 713.895 2870.88 669.805H2870.87ZM3306.41 1006.92C3255.88 987.794 3204.89 969.925 3153.47 953.37C3152.63 996.396 3157.55 1035.8 3168 1071.65C3178.45 1107.5 3206.56 1170.89 3216.08 1172.91C3229.89 1175.84 3283.1 1110.26 3299.7 1067.82C3326.49 1111.59 3352.94 1155.5 3379.11 1199.64C3371.54 1211.53 3363.18 1222.92 3353.99 1233.8C3259.3 1196.33 3163.84 1162.83 3066.49 1132.95C3036.63 1061.48 3022.04 983.767 3028.39 906.359C3032.01 862.371 3039.74 827.091 3051.2 800.784C3062.93 773.871 3080.15 745.41 3103.18 716.17C3198.62 745.414 3292.36 778.012 3385.36 814.266C3385.07 819.845 3384.56 826.101 3383.77 832.971C3376.35 897.393 3348.45 957.745 3306.41 1006.92H3306.41ZM3156.52 939.692C3201.22 910.046 3264.73 837.01 3249.95 773.937C3201.63 803.971 3154.72 868.662 3156.52 939.692Z" fill="black"/>
<path d="M227.613 851.165C227.613 851.165 319.747 708.522 493.607 708.522C526.298 1072.55 588.192 1445.45 684.639 1729.98C684.639 1729.98 664.617 1082.95 689.245 677.754C689.245 677.754 1276.18 400.801 2099.93 400.801C3031.62 400.801 3631.24 673.57 3863.05 722.602C3863.05 722.602 3624.52 724.87 3539.82 729.328C3455.12 733.785 2906.8 480.5 2099.93 480.5C1453.9 480.5 1008.44 679.913 838.349 743.017C789.313 1224.1 751.112 1772.37 751.112 2146.8C499.551 1589.61 431.197 1347.43 348.418 800.643C348.418 800.643 315.289 793.214 227.613 851.161V851.165Z" fill="black"/>
<path d="M3691.69 798.81C3691.69 798.81 3764.16 914.629 3771.62 928.174C3771.62 928.174 3854.25 796.776 3858.32 785.942L3528.45 798.133C3528.45 798.133 3383.74 1023.4 3549.63 1215.19C3692.28 1380.12 3619.47 1542.07 3525.85 1789.09C3525.85 1789.09 3510.25 1491.55 3480.16 1422.46C3480.16 1422.46 3452.3 1479.3 3432.24 1508.27C3412.17 1537.24 3386.54 1571.79 3393.23 1618.59C3399.92 1665.4 3430.44 1747.91 3436.69 1930.61C3442.26 2093.31 3445.98 2127.93 3449.32 2147.99C3449.32 2147.99 3690.79 1709.97 3730.91 1537.61C3748.04 1464.05 3826.64 1275.46 3707.14 1158.73C3513.97 970.031 3691.69 798.81 3691.69 798.81Z" fill="black"/>
<path d="M4045.13 3172.8H3482.03V3595.09H4045.13V3172.8Z" fill="black"/>
<path d="M4045.13 3172.8V3595.09H3482.03V3172.8H4045.13ZM4049.04 3168.89H3478.12V3599H4049.04V3168.89Z" fill="white"/>
<path d="M3603.92 3284.2C3617.83 3305.17 3628.68 3321.43 3636.47 3332.95C3644.26 3344.47 3649.92 3352.83 3653.45 3358.02C3657.6 3364.25 3660.09 3367.89 3660.92 3368.92L3718.24 3284.2H3758.74V3492.89H3715.13V3364.56L3660.92 3439.32L3607.04 3365.5V3492.89H3563.12V3284.2H3603.93H3603.92Z" fill="white"/>
<path d="M3805 3418.14C3803.02 3407.76 3802.04 3397.06 3802.04 3386.05C3802.04 3375.05 3803.12 3364.41 3805.3 3354.13C3807.49 3343.85 3811.11 3334.3 3816.21 3325.47C3821.29 3316.65 3827.94 3308.76 3836.15 3301.8C3844.35 3294.84 3854.47 3289.08 3866.52 3284.51C3867.14 3283.89 3867.81 3283.58 3868.54 3283.58C3869.27 3283.58 3869.84 3283.37 3870.26 3282.96C3875.65 3281.92 3880.79 3281.19 3885.67 3280.78C3890.55 3280.36 3895.69 3280.15 3901.09 3280.15C3906.28 3280.15 3910.33 3280.21 3913.24 3280.31C3916.14 3280.41 3918.85 3280.73 3921.34 3281.24C3923.83 3281.76 3926.63 3282.59 3929.75 3283.74C3932.86 3284.88 3937.22 3286.59 3942.83 3288.87C3943.45 3289.29 3944.65 3290.02 3946.41 3291.05C3948.17 3292.1 3949.99 3293.19 3951.87 3294.32C3953.73 3295.47 3955.39 3296.51 3956.85 3297.44C3958.3 3298.37 3959.13 3298.84 3959.34 3298.84C3961 3300.51 3963.65 3302.73 3967.29 3305.54C3970.91 3308.34 3973.56 3310.99 3975.23 3313.48V3314.72C3975.23 3315.77 3973.83 3317.84 3971.02 3320.95C3968.22 3324.07 3965.1 3327.29 3961.67 3330.61C3958.25 3333.94 3953.83 3338.3 3948.44 3343.69H3947.81C3941.16 3336.43 3934.26 3330.51 3927.1 3325.94C3919.93 3321.37 3911.26 3319.09 3901.09 3319.09C3889.04 3319.09 3879.49 3321.78 3872.43 3327.18C3865.37 3332.59 3859.55 3340.79 3854.99 3351.79C3853.74 3354.7 3852.7 3357.87 3851.87 3361.29C3851.04 3364.72 3850.63 3368.1 3850.63 3371.42V3402.56C3850.63 3403.61 3850.78 3404.9 3851.09 3406.46C3851.4 3408.01 3851.71 3409.73 3852.03 3411.6C3852.34 3413.46 3852.7 3415.24 3853.12 3416.89C3853.53 3418.55 3853.94 3419.8 3854.36 3420.63C3857.89 3432.05 3863.65 3440.98 3871.65 3447.42C3879.64 3453.86 3889.66 3457.07 3901.71 3457.07C3912.09 3457.07 3921.28 3454.64 3929.28 3449.75C3937.27 3444.88 3944.9 3439.01 3952.17 3432.15C3952.58 3432.15 3954.09 3433.67 3956.68 3436.67C3959.28 3439.68 3962.08 3443.01 3965.1 3446.64C3968.1 3450.28 3970.8 3453.75 3973.19 3457.07C3975.58 3460.4 3976.78 3462.37 3976.78 3462.99C3976.78 3463.62 3976.04 3464.66 3974.59 3466.11C3973.14 3467.56 3971.53 3469.02 3969.76 3470.47C3968 3471.92 3966.23 3473.32 3964.47 3474.67C3962.71 3476.02 3961.51 3476.9 3960.89 3477.32C3957.56 3479.19 3954.76 3480.8 3952.48 3482.15C3950.19 3483.5 3947.7 3485.01 3945 3486.66C3944.79 3486.66 3944.64 3486.77 3944.54 3486.97C3944.43 3487.18 3944.28 3487.29 3944.07 3487.29C3937.01 3490.61 3929.79 3492.89 3922.42 3494.14C3915.05 3495.38 3907.52 3496.01 3899.84 3496.01C3892.99 3496.01 3886.13 3495.49 3879.28 3494.45C3872.43 3493.41 3865.73 3491.76 3859.19 3489.47C3852.64 3487.18 3846.46 3484.12 3840.65 3480.28C3834.84 3476.44 3829.75 3471.82 3825.39 3466.41C3824.97 3465.79 3824.19 3464.55 3823.05 3462.68C3821.91 3460.81 3820.66 3458.84 3819.32 3456.76C3817.96 3454.69 3816.36 3452.09 3814.49 3448.97C3810.13 3438.8 3806.96 3428.52 3804.99 3418.14H3805Z" fill="white"/>
</g>
<defs>
<filter id="filter0_d_141_60" x="-100" y="0" width="4400" height="4000" filterUnits="userSpaceOnUse" color-interpolation-filters="sRGB">
<feFlood flood-opacity="0" result="BackgroundImageFix"/>
<feColorMatrix in="SourceAlpha" type="matrix" values="0 0 0 0 0 0 0 0 0 0 0 0 0 0 0 0 0 0 127 0" result="hardAlpha"/>
<feOffset dy="100"/>
<feGaussianBlur stdDeviation="50"/>
<feComposite in2="hardAlpha" operator="out"/>
<feColorMatrix type="matrix" values="0 0 0 0 0 0 0 0 0 0 0 0 0 0 0 0 0 0 0.5 0"/>
<feBlend mode="multiply" in2="BackgroundImageFix" result="effect1_dropShadow_141_60"/>
<feBlend mode="normal" in="SourceGraphic" in2="effect1_dropShadow_141_60" result="shape"/>
</filter>
</defs>
</svg>
